<svg width="28" height="28" xmlns="http://www.w3.org/2000/svg"><g fill="none" fill-rule="evenodd"><path d="M0 0h28v28H0z"></path><path d="M17.5 8.5A3.5 3.5 0 0 0 14 5a3.5 3.5 0 0 0-3.5 3.5 3.5 3.5 0 1 0 7 0zm2 0A5.5 5.5 0 0 1 14 14a5.5 5.5 0 0 1-5.5-5.5 5.5 5.5 0 1 1 11 0zM7 20.64c0 .95-.08.86.46.86h13.58c.54 0 .46.09.46-.86 0-2.28-3.3-3.64-7.25-3.64S7 18.36 7 20.64zm-2 0C5 16.76 9.3 15 14.25 15s9.25 1.76 9.25 5.64c0 2.02-.78 2.86-2.46 2.86H7.46C5.78 23.5 5 22.66 5 20.64z" fill="#2688eb" fill-rule="nonzero"></path></g></svg>
