<svg width="28" height="28" xmlns="http://www.w3.org/2000/svg"><g fill="none" fill-rule="evenodd"><path d="M0 0h28v28H0z"></path><path d="M24 19.18c-.17 3.13-4.65 5.32-10 5.32-5.45 0-10-2.27-10-5.5V8.82C4.17 5.7 8.66 3.5 14 3.5c5.45 0 10 2.27 10 5.5v10zm-2-6.81c-1.84 1.33-4.76 2.13-8 2.13s-6.16-.8-8-2.13V14c0 1.75 3.51 3.5 8 3.5s8-1.75 8-3.5zM14 5.5C9.51 5.5 6 7.25 6 9s3.51 3.5 8 3.5 8-1.75 8-3.5-3.51-3.5-8-3.5zm8 11.87c-1.84 1.32-4.76 2.13-8 2.13s-6.16-.8-8-2.13v1.75c.16 1.7 3.61 3.38 8 3.38 4.49 0 8-1.75 8-3.5z" fill="currentColor" fill-rule="nonzero"></path></g></svg>
