<svg fill="none" height="28" viewBox="0 0 28 28" width="28" xmlns="http://www.w3.org/2000/svg"><path d="M14 2a12 12 0 1 1 0 24 12 12 0 0 1 0-24zm0 2a10 10 0 1 0 0 20 10 10 0 0 0 0-20zm1.67 4.5a3.66 3.66 0 1 1 0 7.32h-2.46v1.4h1.64a.82.82 0 1 1 0 1.64h-1.63v.78c0 .48-.39.86-.86.86h-.14a.86.86 0 0 1-.86-.86v-.78h-.87a.82.82 0 1 1 0-1.63h.87v-1.4h-.83a.86.86 0 0 1-.86-.86v-.16c0-.47.38-.86.86-.86h.83v-4.6c0-.47.38-.85.86-.85zm.04 1.71h-2.5v3.74h2.5a1.87 1.87 0 1 0 0-3.74z" fill="currentColor"></path></svg>
