<svg width="28" height="28" xmlns="http://www.w3.org/2000/svg"><g fill="none" fill-rule="evenodd"><path d="M0 0h28v28H0z"></path><path d="M15.7 2c.52 0 .99.07 1.43.2.45.14.87.37 1.24.67.36.28.67.64.96 1.07l.27.4.13.2c.1.12.16.19.24.25a.77.77 0 0 0 .28.15 2 2 0 0 0 .57.06h.22c1.2.05 1.87.22 2.59.6a4.27 4.27 0 0 1 1.77 1.77c.45.83.6 1.63.6 3.25v5.97c0 2.18-.2 3.23-.79 4.32a5.54 5.54 0 0 1-2.3 2.3c-1.09.59-2.14.79-4.32.79H9.4c-2.18 0-3.23-.2-4.32-.79a5.54 5.54 0 0 1-2.3-2.3c-.56-1.03-.77-2.03-.79-3.98v-6.6c.02-1.43.18-2.18.6-2.96A4.27 4.27 0 0 1 4.37 5.6c.7-.37 1.35-.53 2.45-.58L6.91 5h.26c.32 0 .45-.02.58-.06a.77.77 0 0 0 .28-.15c.1-.09.2-.18.37-.45l.27-.4c.29-.43.6-.79.96-1.07a3.74 3.74 0 0 1 1.24-.67c.44-.14.91-.2 1.43-.2h3.4zm0 2h-3.4c-.32 0-.6.04-.83.11a1.74 1.74 0 0 0-.59.31c-.19.16-.37.36-.55.64l-.3.45c-.27.39-.47.61-.72.82a2.77 2.77 0 0 1-.98.52c-.34.1-.65.14-1.19.15H7.1l-.27.02c-.76.04-1.11.13-1.5.34-.42.22-.74.54-.96.95-.27.5-.36 1-.36 2.3v5.98c0 1.88.14 2.62.55 3.38.34.64.84 1.14 1.48 1.48.68.36 1.34.52 2.82.54l.56.01h9.74c1.48-.03 2.14-.18 2.82-.55a3.54 3.54 0 0 0 1.48-1.48c.37-.68.52-1.34.55-2.82V10.16a3.7 3.7 0 0 0-.36-1.85 2.27 2.27 0 0 0-.95-.95A3.5 3.5 0 0 0 21 7h-.24c-.48-.01-.77-.05-1.09-.14a2.77 2.77 0 0 1-.98-.53 3.66 3.66 0 0 1-.72-.82l-.3-.45a2.78 2.78 0 0 0-.55-.64 1.74 1.74 0 0 0-.6-.31A2.78 2.78 0 0 0 15.7 4zM14 8.5A5.25 5.25 0 1 1 14 19a5.25 5.25 0 0 1 0-10.5zm0 2a3.25 3.25 0 1 0 0 6.5 3.25 3.25 0 0 0 0-6.5z" fill="currentColor" fill-rule="nonzero"></path></g></svg>
