<svg height="22" viewBox="0 0 22 22" width="22" xmlns="http://www.w3.org/2000/svg"><g fill="none" fill-rule="evenodd"><path d="M-3-3h28v28H-3z" opacity=".04"></path><path d="M19.5 6v-.65c0-1.07-.07-1.45-.28-1.84-.17-.32-.41-.56-.73-.73-.39-.2-.77-.28-1.84-.28H5.35c-1.07 0-1.45.07-1.84.28-.32.17-.56.41-.73.73-.2.39-.28.77-.28 1.84V6zm0 2h-17v8.65c0 1.07.07 1.45.28 1.84.17.32.41.56.73.73.39.2.77.28 1.84.28h11.3c1.07 0 1.45-.07 1.84-.28.32-.17.56-.41.73-.73.2-.39.28-.77.28-1.84zM5.35.5h11.3c1.37 0 2.07.13 2.79.52.66.35 1.19.88 1.54 1.54.39.72.52 1.42.52 2.79v11.3c0 1.37-.13 2.07-.52 2.79a3.73 3.73 0 0 1-1.54 1.54c-.72.39-1.42.52-2.79.52H5.35c-1.37 0-2.07-.13-2.79-.52a3.73 3.73 0 0 1-1.54-1.54C.63 18.72.5 18.02.5 16.65V5.35c0-1.37.13-2.07.52-2.79.35-.66.88-1.19 1.54-1.54C3.28.63 3.98.5 5.35.5z" fill="currentColor" fill-rule="nonzero"></path></g></svg>
