<svg width="28" height="28" viewBox="0 0 28 28" fill="none" xmlns="http://www.w3.org/2000/svg"><path d="M14 2c1.69 0 3.3.35 4.75.98l.33.15a12 12 0 0 1 6.85 12.13 1 1 0 0 1-1.98-.2 9.97 9.97 0 0 0-5.99-10.24 9.96 9.96 0 0 0-8.66.35l-.07.04A10.04 10.04 0 0 0 4 14c0 2.01.6 3.89 1.62 5.45a1 1 0 1 1-1.68 1.1A11.97 11.97 0 0 1 9.25 2.98h.01C10.72 2.34 12.32 2 14 2Z" fill="currentColor"></path><path fill-rule="evenodd" clip-rule="evenodd" d="m16.08 11.8 8.9 7.25c1 .81.09 2.4-1.12 1.94l-10.73-4.1a3.04 3.04 0 0 1-.32-.13l-.31-.16a3 3 0 1 1 3.3-5l.28.2Zm-1.58 1.33a1 1 0 1 0-1 1.74 1 1 0 0 0 1-1.74Z" fill="currentColor"></path></svg>
