<svg width="28" height="28" xmlns="http://www.w3.org/2000/svg"><g fill="none" fill-rule="evenodd"><path d="M0 0h28v28H0z"></path><path d="M9.12 15c1.06 0 1.62.1 2.2.42.54.29.97.72 1.26 1.26.31.58.42 1.14.42 2.2v2.24c0 1.06-.1 1.62-.42 2.2-.29.54-.72.97-1.26 1.26-.58.31-1.14.42-2.2.42H6.88c-1.06 0-1.62-.1-2.2-.42a3.05 3.05 0 0 1-1.26-1.26 4.24 4.24 0 0 1-.42-2.2v-2.24c0-1.06.1-1.62.42-2.2.29-.54.72-.97 1.26-1.26a4.24 4.24 0 0 1 2.2-.42h2.24zm12 0c1.06 0 1.62.1 2.2.42.54.29.97.72 1.26 1.26.31.58.42 1.14.42 2.2v2.24c0 1.06-.1 1.62-.42 2.2-.29.54-.72.97-1.26 1.26-.58.31-1.14.42-2.2.42h-2.24c-1.06 0-1.62-.1-2.2-.42a3.05 3.05 0 0 1-1.26-1.26 4.24 4.24 0 0 1-.42-2.2v-2.24c0-1.06.1-1.62.42-2.2.29-.54.72-.97 1.26-1.26a4.24 4.24 0 0 1 2.2-.42h2.24zm-12 2H6.88c-.76 0-1 .05-1.26.18a1.04 1.04 0 0 0-.44.44c-.13.25-.18.5-.18 1.26v2.24c0 .76.05 1 .18 1.26.1.19.25.33.44.44.26.13.5.18 1.26.18h2.24c.76 0 1-.05 1.26-.18.19-.1.33-.25.44-.44.13-.25.18-.5.18-1.26v-2.24c0-.76-.05-1-.18-1.26a1.04 1.04 0 0 0-.44-.44c-.26-.13-.5-.18-1.26-.18zm12 0h-2.24c-.76 0-1 .05-1.26.18a1.04 1.04 0 0 0-.44.44c-.13.25-.18.5-.18 1.26v2.24c0 .76.05 1 .18 1.26.1.19.25.33.44.44.25.13.5.18 1.26.18h2.24c.76 0 1-.05 1.26-.18.19-.1.33-.25.44-.44.13-.25.18-.5.18-1.26v-2.24c0-.76-.05-1-.18-1.26a1.04 1.04 0 0 0-.44-.44c-.25-.13-.5-.18-1.26-.18zm-.23-14.59c.63.2 1.1.51 1.86 1.27l1.57 1.57a4.23 4.23 0 0 1 1.27 1.86 3.04 3.04 0 0 1 0 1.78c-.2.63-.51 1.1-1.27 1.86l-1.57 1.57a4.23 4.23 0 0 1-1.86 1.27 3.04 3.04 0 0 1-1.78 0 4.23 4.23 0 0 1-1.86-1.27l-1.58-1.57a4.23 4.23 0 0 1-1.26-1.86 3.04 3.04 0 0 1 0-1.78c.2-.63.51-1.1 1.26-1.86l1.58-1.57a4.23 4.23 0 0 1 1.86-1.27 3.04 3.04 0 0 1 1.78 0zM9.12 3c1.06 0 1.62.1 2.2.42.54.29.97.72 1.26 1.26.31.58.42 1.14.42 2.2v2.24c0 1.06-.1 1.62-.42 2.2-.29.54-.72.97-1.26 1.26-.58.31-1.14.42-2.2.42H6.88c-1.06 0-1.62-.1-2.2-.42a3.05 3.05 0 0 1-1.26-1.26A4.24 4.24 0 0 1 3 9.12V6.88c0-1.06.1-1.62.42-2.2.29-.54.72-.97 1.26-1.26A4.24 4.24 0 0 1 6.88 3h2.24zm10.57 1.33c-.28.08-.48.22-1.02.76l-1.58 1.58c-.54.54-.68.75-.76 1.02a1.04 1.04 0 0 0 0 .62c.08.27.22.48.76 1.02l1.58 1.58c.54.54.74.68 1.02.76.2.07.41.07.62 0 .28-.08.48-.22 1.02-.76l1.58-1.58c.54-.54.68-.74.76-1.02a1.04 1.04 0 0 0 0-.62c-.08-.27-.22-.48-.76-1.02l-1.58-1.58c-.54-.54-.74-.68-1.02-.76a1.04 1.04 0 0 0-.62 0zM9.12 5H6.88c-.76 0-1 .05-1.26.18a1.04 1.04 0 0 0-.44.44c-.13.26-.18.5-.18 1.26v2.24c0 .76.05 1 .18 1.26.1.2.25.34.44.44.26.13.5.18 1.26.18h2.24c.76 0 1-.05 1.26-.18.19-.1.33-.25.44-.44.13-.25.18-.5.18-1.26V6.88c0-.76-.05-1-.18-1.26a1.04 1.04 0 0 0-.44-.44C10.12 5.05 9.88 5 9.1 5z" fill="currentColor" fill-rule="nonzero"></path></g></svg>
