<svg width="28" height="28" xmlns="http://www.w3.org/2000/svg"><g fill="none" fill-rule="evenodd"><path opacity=".4" d="M0 0h28v28H0z"></path><g><path d="M16.73 17.21h-6.46c-1.54 0-4.12 5-5.66 5-2.05 0-2.57-1-2.57-4s.52-11.1 6.17-11.1H18.8c5.65 0 6.17 8.1 6.17 11.1s-.52 4-2.57 4c-2.06 0-4.12-5-5.66-5z" stroke="currentColor" stroke-width="2"></path><path d="M8.57 9.81a.51.51 0 0 1 .5.51v1.27h1.27a.51.51 0 0 1 .5.51v.76a.51.51 0 0 1-.5.51H9.08v1.27a.51.51 0 0 1-.51.5h-.75a.51.51 0 0 1-.51-.5v-1.27H6.05a.51.51 0 0 1-.51-.51v-.76a.51.51 0 0 1 .5-.5h1.27v-1.28a.51.51 0 0 1 .5-.5h.76zm10.61 3.56a.51.51 0 0 1 .51.51v.76a.51.51 0 0 1-.5.5h-.76a.51.51 0 0 1-.5-.5v-.76a.51.51 0 0 1 .5-.51h.75zm-1.77-1.78a.51.51 0 0 1 .51.51v.76a.51.51 0 0 1-.5.51h-.76a.51.51 0 0 1-.5-.51v-.76a.51.51 0 0 1 .5-.5h.75zm3.54 0a.51.51 0 0 1 .51.51v.76a.51.51 0 0 1-.5.51h-.76a.51.51 0 0 1-.5-.51v-.76a.51.51 0 0 1 .5-.5h.75zm-1.77-1.77a.51.51 0 0 1 .51.5v.76a.51.51 0 0 1-.5.51h-.76a.51.51 0 0 1-.5-.5v-.76a.51.51 0 0 1 .5-.51h.75z" fill="none" class="game_outline_28-1"></path></g></g></svg>
