<svg fill="none" height="28" viewBox="0 0 28 28" width="28" xmlns="http://www.w3.org/2000/svg"><path clip-rule="evenodd" d="M12.2 3h-.04c-1.23 0-2.2 0-3 .06-.8.07-1.51.21-2.16.54A5.5 5.5 0 0 0 4.6 6a5.64 5.64 0 0 0-.54 2.16c-.06.8-.06 1.77-.06 3v11.82a3 3 0 0 0 4.55 2.57l4.93-2.99a1 1 0 0 1 1.04 0l4.93 2.99A3 3 0 0 0 24 22.98V11.16c0-1.23 0-2.2-.06-3A5.64 5.64 0 0 0 23.4 6 5.5 5.5 0 0 0 21 3.6a5.64 5.64 0 0 0-2.16-.54c-.8-.06-1.77-.06-3-.06h-.04zM6 16v6.98a1 1 0 0 0 1.52.85l4.93-2.98a3 3 0 0 1 3.1 0l4.93 2.98a1 1 0 0 0 1.52-.85V11.2c0-1.28 0-2.17-.06-2.87a3.7 3.7 0 0 0-.32-1.42 3.5 3.5 0 0 0-1.53-1.53 3.7 3.7 0 0 0-1.42-.32C17.97 5 17.07 5 15.8 5h-3.6c-1.28 0-2.17 0-2.87.06a3.7 3.7 0 0 0-1.42.32 3.5 3.5 0 0 0-1.53 1.53 3.7 3.7 0 0 0-.32 1.42C6 9.03 6 9.93 6 11.2z" fill="currentColor" fill-rule="evenodd"></path></svg>
