<svg width="28" height="28" xmlns="http://www.w3.org/2000/svg"><g fill="none" fill-rule="evenodd"><path d="M0 0h28v28H0z"></path><path d="M14 2a6 6 0 0 1 6 6v2.02c.84.06 1.38.2 1.94.5.66.35 1.19.88 1.54 1.54.39.72.52 1.42.52 2.79v6.3c0 1.37-.13 2.07-.52 2.79a3.73 3.73 0 0 1-1.54 1.54c-.72.39-1.42.52-2.79.52H8.85c-1.37 0-2.07-.13-2.79-.52a3.73 3.73 0 0 1-1.54-1.54c-.39-.72-.52-1.42-.52-2.79v-6.3c0-1.37.13-2.07.52-2.79a3.73 3.73 0 0 1 1.54-1.54c.56-.3 1.1-.44 1.94-.5V8a6 6 0 0 1 6-6zm5.15 10H8.85c-1.07 0-1.45.07-1.84.28-.32.17-.56.41-.73.73-.2.39-.28.77-.28 1.84v6.3c0 1.07.07 1.45.28 1.84.17.32.41.56.73.73.39.2.77.28 1.84.28h10.3c1.07 0 1.45-.07 1.84-.28.32-.17.56-.41.73-.73.2-.39.28-.77.28-1.84v-6.3c0-1.07-.07-1.45-.28-1.84a1.73 1.73 0 0 0-.73-.73c-.39-.2-.77-.28-1.84-.28zM14 15a1 1 0 0 1 1 1v3a1 1 0 0 1-2 0v-3a1 1 0 0 1 1-1zm0-11a4 4 0 0 0-4 4v2h8V8a4 4 0 0 0-4-4z" fill="currentColor" fill-rule="nonzero"></path></g></svg>
