<svg width="28" height="28" xmlns="http://www.w3.org/2000/svg"><g fill="none" fill-rule="evenodd"><path d="M0 0h28v28H0z"></path><path d="M24.44 12.06c.51.77.59 1.83.2 2.66l-2.69 5.63A10.6 10.6 0 0 1 13 26h-1a8 8 0 0 1-8-8v-7.87a2.75 2.75 0 0 1 3.5-2.64v-.74a2.75 2.75 0 0 1 3.57-2.62A2.75 2.75 0 0 1 13.75 2a2.75 2.75 0 0 1 2.75 2.6A2.75 2.75 0 0 1 20 7.25v4.27c1.3-1.28 3.36-1.09 4.44.54zM6.75 9.38a.75.75 0 0 0-.75.75v7.86A6 6 0 0 0 12 24h1a8.62 8.62 0 0 0 7.15-4.51l2.68-5.63a.79.79 0 0 0-.05-.7c-.43-.63-1.13-.64-1.55 0l-2.18 3.26c-.58.87-1.05.73-1.05-.32V7.25a.75.75 0 0 0-.75-.75.75.75 0 0 0-.75.75V13a1 1 0 0 1-2 0V4.75a.75.75 0 1 0-1.5 0V13a1 1 0 0 1-1 1 1 1 0 0 1-1-1V6.75a.76.76 0 0 0-.75-.75.75.75 0 0 0-.75.75v6.74a1 1 0 0 1-1 1.01 1 1 0 0 1-1-1v-3.36a.75.75 0 0 0-.75-.76z" fill="currentColor" fill-rule="nonzero"></path></g></svg>
