<svg height="28" width="28" xmlns="http://www.w3.org/2000/svg"><g fill="none" fill-rule="evenodd"><path d="M0 0h28v28H0z"></path><path d="M20 13.9v-1.82c0-3.72-2.61-6.58-6-6.58-3.38 0-6 2.86-6 6.58v1.83c0 .92-.38 1.61-1.21 2.59a44.99 44.99 0 0 1-.28.33c-.76.88-1.01 1.3-1.01 1.76 0 .22.02.34.07.45.12.27.49.46 1.43.46h14c.91 0 1.29-.2 1.42-.46a.94.94 0 0 0 .08-.45c0-.47-.25-.88-1-1.76l-.3-.33c-.82-.98-1.2-1.67-1.2-2.6zM14 3.5c4.54 0 8 3.8 8 8.58v1.83c0 .3.2.66.73 1.3l.27.3c1.07 1.25 1.5 1.96 1.5 3.08 0 .5-.06.89-.3 1.36-.5.99-1.58 1.55-3.2 1.55h-2.6C17.73 23.77 16.2 25 14 25s-3.73-1.24-4.4-3.5H7c-1.67 0-2.76-.57-3.24-1.6-.21-.45-.26-.81-.26-1.31 0-1.12.42-1.83 1.5-3.07l.26-.31c.54-.64.74-1 .74-1.3v-1.83C6 7.3 9.47 3.5 14 3.5zm2.28 18h-4.56C12.17 22.54 12.9 23 14 23s1.83-.46 2.28-1.5z" fill="currentColor" fill-rule="nonzero"></path></g></svg>
