<svg width="28" height="28" viewBox="0 0 28 28" xmlns="http://www.w3.org/2000/svg"><g id="id-users_outline_28__Page-1" stroke="none" stroke-width="1" fill="none" fill-rule="evenodd"><g id="id-users_outline_28__users_outline_28"><path d="M0 0h28v28H0z"></path><path d="M9 15c4 0 7.5 1.54 7.5 4.93 0 1.77-.69 2.57-2.15 2.57H3.65c-1.46 0-2.15-.8-2.15-2.57C1.5 16.54 5 15 9 15Zm10.5 0c4 0 7.5 1.54 7.5 4.93 0 1.77-.69 2.57-2.15 2.57H19a1 1 0 0 1 0-2h5.96l.01-.01a4 4 0 0 0 .03-.43v-.13C25 18.1 22.51 17 19.5 17c-.43 0-.9.03-1.37.1a1 1 0 1 1-.26-2c.56-.06 1.12-.1 1.63-.1ZM9 17c-3.01 0-5.5 1.1-5.5 2.93 0 .28.02.46.03.56v.01H14.46l.01-.01c.01-.1.03-.28.03-.56C14.5 18.1 12.01 17 9 17ZM19.5 5a4.25 4.25 0 1 1 0 8.5 4.25 4.25 0 0 1 0-8.5ZM9 5a4.25 4.25 0 1 1 0 8.5A4.25 4.25 0 0 1 9 5Zm10.5 2a2.25 2.25 0 1 0 0 4.5 2.25 2.25 0 0 0 0-4.5ZM9 7a2.25 2.25 0 1 0 0 4.5A2.25 2.25 0 0 0 9 7Z" id="id-users_outline_28__в†і-Icon-Color" fill="currentColor" fill-rule="nonzero"></path></g></g></svg>
