<svg width="28" height="28" xmlns="http://www.w3.org/2000/svg"><g fill="none" fill-rule="evenodd"><path opacity=".4" d="M0 0h28v28H0z"></path><path d="M22.03 2.9c1.1.33 1.77 1.25 1.77 2.66v6.26h-.05l.05.02v4.06c0 3.54-1.17 5.5-3.9 5.99-2 .36-4.13-1.2-3.9-3.48.26-2.42 2.16-3.37 6-4.08V8.2l-10.8 2.2-.2.04v6.84l-.01.37v1.67c.01 3.08-.85 4.65-2.67 5.63-2.19 1.17-5.02.1-5.32-2.58-.29-2.66 2.42-4.48 6.19-4.58v-1.34l.01-.01V7.28c0-1.49 1.33-2.63 3.25-3 4.01-.87 7.2-1.34 7.59-1.41.7-.14 1.33-.17 1.99.03zM9.19 19.6c-2.83.07-4.54 1.23-4.4 2.57.15 1.29 1.52 1.8 2.68 1.2 1.16-.63 1.69-1.54 1.72-3.78zm12.8-3.44c-2.81.55-4.06 1.23-4.2 2.43-.1.98.88 1.7 1.8 1.53 1.67-.3 2.36-1.38 2.4-3.96zM20.4 4.63c-.38.08-3.57.55-7.58 1.42-1.19.23-1.8.76-1.81 1.24v1.3l11-2.24v-.79c0-.62-.16-.84-.49-.94a2.4 2.4 0 0 0-1.13.01z" fill="currentColor" fill-rule="nonzero"></path></g></svg>
