<svg width="28" height="28" xmlns="http://www.w3.org/2000/svg"><g fill="none" fill-rule="evenodd"><path d="M0 0h28v28H0z"></path><path d="M20.87 4c1.78 0 2.43.19 3.08.53.66.35 1.17.86 1.52 1.52.34.65.53 1.3.53 3.08v9.12-3.23.1a1 1 0 0 1-2-.12v-3H4v5.44c0 .89.1 1.21.27 1.54.17.32.43.58.75.75.3.16.6.26 1.35.27h16.22l-2.3-2.3a1 1 0 0 1 1.42-1.4l4 4a1 1 0 0 1 0 1.4l-4 4a1 1 0 0 1-1.42-1.4l2.3-2.3H7.13c-1.78 0-2.43-.19-3.08-.53a3.63 3.63 0 0 1-1.52-1.52C2.2 19.3 2 18.65 2 16.87V9.13c0-1.79.19-2.43.53-3.08a3.63 3.63 0 0 1 1.52-1.52C4.7 4.2 5.35 4 7.13 4h13.74zm.57 2H6.56c-.89 0-1.21.1-1.54.27a1.8 1.8 0 0 0-.75.75c-.16.3-.25.6-.27 1.35V10h20V8.56c0-.89-.1-1.21-.27-1.54a1.82 1.82 0 0 0-.75-.75c-.33-.18-.65-.27-1.54-.27z" fill="currentColor" fill-rule="nonzero"></path></g></svg>
