<?xml version="1.0" encoding="utf-8"?><!-- Uploaded to: SVG Repo, www.svgrepo.com, Generator: SVG Repo Mixer Tools -->
<svg fill="#000000" width="800px" height="800px" viewBox="0 0 24 24" id="file-video-player" data-name="Flat Color" xmlns="http://www.w3.org/2000/svg" class="icon flat-color"><path id="primary" d="M18,5V19l-3,3H4a2,2,0,0,1-2-2V4A2,2,0,0,1,4,2H15a1,1,0,0,1,.71.29l2,2A1,1,0,0,1,18,5Z" style="fill: rgb(0, 0, 0);"></path><path id="secondary" d="M22,15a7,7,0,1,1-7-7A7,7,0,0,1,22,15ZM17.71,4.29l-2-2A1,1,0,0,0,15,2V4a1,1,0,0,0,1,1h2A1,1,0,0,0,17.71,4.29Z" style="fill: rgb(44, 169, 188);"></path><path id="primary-2" data-name="primary" d="M14,17.5a1,1,0,0,1-.53-.15A1,1,0,0,1,13,16.5v-3a1,1,0,0,1,1.45-.89l3,1.5a1,1,0,0,1,0,1.78l-3,1.5A1,1,0,0,1,14,17.5Z" style="fill: rgb(0, 0, 0);"></path></svg>