<?xml version="1.0" standalone="no"?>
<!DOCTYPE svg PUBLIC "-//W3C//DTD SVG 20010904//EN"
 "http://www.w3.org/TR/2001/REC-SVG-20010904/DTD/svg10.dtd">
<svg version="1.0" xmlns="http://www.w3.org/2000/svg"
 width="40.000000pt" height="40.000000pt" viewBox="0 0 40.000000 40.000000"
 preserveAspectRatio="xMidYMid meet">

<g transform="translate(0.000000,40.000000) scale(0.100000,-0.100000)"
fill="#000000" stroke="none">
<path d="M141 385 c-61 -19 -108 -68 -127 -132 -14 -48 -14 -58 0 -107 11 -38
27 -64 54 -88 109 -98 277 -51 318 89 14 48 14 58 0 106 -19 65 -66 113 -131
133 -57 17 -57 17 -114 -1z m14 -135 c0 -18 -6 -26 -23 -28 -24 -4 -38 18 -28
44 3 9 15 14 28 12 17 -2 23 -10 23 -28z m140 0 c0 -18 -6 -26 -23 -28 -13 -2
-25 3 -28 12 -10 26 4 48 28 44 17 -2 23 -10 23 -28z m5 -94 c0 -33 -50 -66
-100 -66 -27 0 -90 24 -90 34 0 3 -3 11 -6 20 -5 14 7 16 95 16 56 0 101 -2
101 -4z"/>
</g>
</svg>
