<svg id="svg" version="1.1" xmlns="http://www.w3.org/2000/svg" xmlns:xlink="http://www.w3.org/1999/xlink" width="400" height="400" viewBox="0, 0, 400,400"><g id="svgg"><path id="path0" d="M0.000 200.000 L 0.000 400.000 200.000 400.000 L 400.000 400.000 400.000 200.000 L 400.000 0.000 200.000 0.000 L 0.000 0.000 0.000 200.000 M167.650 105.492 C 170.434 106.422,171.102 107.582,171.448 112.089 C 171.792 116.564,172.518 117.275,176.210 116.752 C 179.978 116.218,221.808 116.262,224.278 116.802 C 227.465 117.499,228.796 116.389,228.810 113.025 C 228.839 105.855,230.319 104.800,240.357 104.800 C 248.499 104.800,252.106 105.750,252.605 108.025 C 252.964 109.658,255.187 110.312,262.158 110.835 C 269.430 111.380,270.092 111.587,271.000 113.600 C 271.855 115.496,272.756 115.865,277.268 116.167 C 282.429 116.513,283.670 117.026,284.391 119.110 C 284.895 120.567,285.204 120.878,286.492 121.225 C 288.191 121.682,288.902 122.582,289.634 125.200 C 290.249 127.395,290.928 128.238,292.779 129.098 C 294.392 129.847,294.705 130.192,295.057 131.600 C 295.812 134.626,298.342 138.800,299.421 138.800 C 300.022 138.800,300.684 140.392,301.170 143.000 C 301.799 146.382,302.967 148.641,304.334 149.117 C 305.954 149.682,306.654 150.927,306.967 153.800 C 307.432 158.069,308.647 161.439,309.910 161.963 C 311.632 162.676,312.796 165.674,313.157 170.323 C 313.484 174.548,313.871 175.453,316.474 178.067 C 318.359 179.961,318.786 181.463,319.182 187.600 C 319.674 195.211,320.363 198.645,321.520 199.264 C 322.040 199.543,322.946 200.587,323.533 201.585 L 324.600 203.400 324.712 233.662 L 324.824 263.923 323.771 264.751 C 323.192 265.206,322.104 265.694,321.353 265.835 C 319.818 266.123,318.141 267.583,317.109 269.530 C 316.329 271.001,314.681 271.827,311.267 272.458 C 308.231 273.020,307.832 273.285,307.217 275.150 C 306.637 276.906,306.649 276.899,301.141 278.643 C 298.051 279.621,297.614 279.882,297.038 281.090 C 296.276 282.687,293.791 283.978,291.454 283.991 C 288.554 284.008,286.131 285.176,285.461 286.881 C 284.727 288.749,284.159 288.973,278.600 289.584 C 272.968 290.204,272.256 290.493,270.974 292.680 C 269.303 295.532,262.038 296.964,258.600 295.118 C 255.415 293.407,252.496 289.935,252.193 287.494 C 251.861 284.826,250.890 283.371,249.193 282.998 C 246.619 282.433,244.416 275.451,245.780 272.185 C 246.507 270.445,247.155 269.855,249.500 268.796 C 251.594 267.851,251.643 267.361,249.700 266.821 C 245.868 265.757,241.463 266.694,240.950 268.682 C 240.294 271.222,238.881 271.594,228.302 272.012 C 222.958 272.223,217.240 272.570,215.593 272.784 C 209.292 273.600,208.577 273.722,207.808 274.119 C 205.237 275.443,196.358 275.440,193.784 274.114 C 193.353 273.892,192.100 273.603,191.000 273.472 C 189.900 273.341,187.560 273.032,185.800 272.787 C 184.040 272.541,179.180 272.293,175.000 272.235 C 164.558 272.091,160.799 271.276,159.365 268.848 C 158.354 267.137,156.452 266.400,153.048 266.400 C 148.877 266.400,147.394 268.112,150.802 268.994 C 152.273 269.374,153.881 270.818,154.514 272.327 C 155.649 275.032,153.492 282.111,151.370 282.643 C 150.140 282.952,148.402 284.989,148.394 286.131 C 148.379 288.252,147.361 290.362,145.722 291.670 C 144.805 292.401,143.684 293.477,143.230 294.059 C 140.715 297.292,131.088 296.309,129.339 292.642 C 128.575 291.039,127.596 290.520,124.716 290.189 C 118.614 289.489,116.480 288.782,115.123 287.015 C 113.646 285.091,111.702 284.187,108.200 283.797 C 105.022 283.442,103.225 282.557,102.585 281.031 C 102.079 279.825,99.945 278.789,95.000 277.349 C 94.136 277.098,93.576 276.524,93.000 275.301 C 92.287 273.785,91.962 273.532,90.000 272.960 C 85.761 271.724,83.295 270.408,82.644 269.035 C 81.809 267.276,80.820 266.471,78.765 265.876 C 76.138 265.115,75.209 263.505,75.167 259.641 C 75.040 247.962,75.248 206.986,75.444 205.200 C 75.721 202.665,77.234 199.750,78.593 199.130 C 80.076 198.455,80.896 194.567,81.193 186.800 C 81.470 179.525,81.618 179.046,84.050 177.532 C 86.102 176.255,86.467 175.317,87.009 169.941 C 87.548 164.600,88.371 162.522,90.311 161.600 C 91.986 160.805,92.814 158.724,93.245 154.229 C 93.609 150.431,94.588 148.669,96.619 148.159 C 97.662 147.898,99.600 142.180,99.600 139.363 C 99.600 139.314,100.410 138.762,101.399 138.137 C 102.389 137.512,103.199 136.863,103.199 136.696 C 103.200 136.528,103.544 135.628,103.965 134.696 C 104.386 133.763,104.938 132.331,105.192 131.513 C 105.634 130.090,107.594 128.000,108.487 128.000 C 109.101 128.000,109.971 126.732,109.996 125.800 C 110.049 123.826,111.547 121.578,113.338 120.786 C 114.519 120.264,115.261 119.620,115.587 118.832 C 116.296 117.119,118.573 116.330,123.640 116.041 C 128.242 115.779,128.992 115.456,129.409 113.559 C 129.830 111.641,130.840 111.312,137.800 110.824 C 145.039 110.317,147.118 109.711,147.457 108.013 C 147.791 106.346,149.851 105.207,152.625 105.157 C 153.931 105.133,156.080 104.968,157.400 104.790 C 160.712 104.345,165.121 104.647,167.650 105.492 M148.700 190.194 C 148.095 190.765,147.600 191.554,147.600 191.946 C 147.600 192.813,146.184 194.201,144.742 194.747 C 142.655 195.538,142.500 196.496,142.436 209.082 C 142.369 222.456,142.394 222.575,145.635 224.218 C 146.958 224.888,147.600 225.464,147.600 225.980 C 147.600 230.159,168.241 230.355,170.962 226.201 C 171.317 225.660,172.160 224.931,172.835 224.582 C 175.850 223.023,176.923 215.919,175.976 203.800 C 175.384 196.229,175.094 195.350,172.704 193.864 C 171.647 193.207,170.685 192.281,170.566 191.806 C 170.091 189.913,168.771 189.638,158.956 189.388 L 149.800 189.156 148.700 190.194 M234.800 189.566 C 231.558 189.819,229.600 190.746,229.600 192.029 C 229.600 192.478,228.909 193.171,227.834 193.801 C 225.588 195.117,224.800 196.334,224.800 198.486 C 224.800 200.637,223.797 205.955,223.057 207.725 C 222.543 208.954,222.580 209.255,223.508 211.431 C 224.244 213.156,224.584 214.834,224.759 217.600 C 225.028 221.837,225.349 222.526,227.935 224.399 C 228.851 225.062,229.600 225.865,229.600 226.182 C 229.600 228.310,231.733 228.799,241.261 228.854 C 251.239 228.911,251.524 228.849,252.813 226.355 C 253.258 225.494,254.135 224.637,254.982 224.235 C 257.779 222.908,257.920 222.146,257.794 209.000 C 257.681 197.111,257.372 194.800,255.895 194.800 C 254.932 194.800,252.809 192.946,252.579 191.905 C 251.989 189.223,247.235 188.597,234.800 189.566 M137.285 261.070 L 136.371 261.717 137.255 262.659 C 138.345 263.819,138.788 263.828,140.916 262.735 L 142.600 261.870 141.356 261.356 C 139.192 260.464,138.237 260.397,137.285 261.070 M259.448 261.080 L 257.496 261.676 258.640 262.426 C 260.587 263.703,261.932 263.803,263.050 262.753 L 264.034 261.829 263.117 261.123 C 262.047 260.300,262.002 260.299,259.448 261.080 " stroke="none" fill="#5b64f3" fill-rule="evenodd"></path><path id="path1" d="M159.509 109.820 C 157.603 111.305,153.156 112.414,142.379 114.092 C 139.119 114.600,138.258 114.903,136.506 116.162 C 133.749 118.143,126.416 120.400,122.738 120.400 C 121.653 120.400,120.649 121.293,120.248 122.613 C 119.944 123.615,118.017 124.800,116.692 124.800 C 115.166 124.800,113.740 126.166,113.464 127.891 C 113.228 129.365,110.694 133.726,109.496 134.720 C 109.170 134.991,108.404 136.605,107.794 138.306 C 106.611 141.609,105.494 143.200,104.359 143.200 C 103.131 143.200,102.400 144.345,102.400 146.267 C 102.400 149.538,101.302 152.336,99.189 154.449 C 97.430 156.208,97.173 156.725,96.044 160.768 C 95.039 164.369,94.481 165.611,92.983 167.581 C 91.450 169.596,91.054 170.498,90.558 173.095 C 90.231 174.803,89.688 177.550,89.350 179.200 C 89.011 180.850,88.663 182.560,88.576 183.000 C 88.489 183.440,87.693 184.749,86.808 185.908 C 84.908 188.399,84.530 189.864,84.205 196.000 C 83.836 202.978,83.305 205.684,80.598 214.400 C 79.000 219.542,78.319 237.890,79.178 252.646 C 79.566 259.304,80.337 261.330,82.900 262.426 C 83.505 262.685,84.000 263.021,84.000 263.174 C 84.000 263.326,85.080 264.058,86.400 264.800 C 87.965 265.680,88.800 266.404,88.800 266.881 C 88.800 267.628,90.918 269.177,92.000 269.222 C 93.488 269.284,96.233 271.071,96.981 272.464 C 97.701 273.803,98.002 273.974,100.781 274.617 C 105.400 275.685,106.545 276.249,107.629 277.990 C 108.503 279.394,108.878 279.617,111.400 280.230 C 117.360 281.681,119.070 282.365,120.655 283.931 C 122.169 285.427,125.655 286.800,127.940 286.800 C 130.192 286.800,135.156 288.891,136.594 290.446 C 138.375 292.371,138.653 292.376,139.419 290.500 C 140.002 289.075,142.943 286.400,143.928 286.400 C 144.175 286.400,144.678 285.365,145.045 284.100 C 145.976 280.895,147.938 277.299,149.276 276.346 C 151.598 274.692,151.329 272.400,148.812 272.400 C 147.559 272.400,143.399 269.988,142.599 268.799 C 141.964 267.854,141.225 267.485,138.610 266.808 C 133.812 265.567,132.714 264.056,133.806 260.200 C 135.026 255.887,144.709 256.069,148.574 260.477 C 149.960 262.059,150.060 262.098,154.093 262.643 C 160.742 263.542,163.764 264.355,167.489 266.246 L 171.000 268.030 178.130 268.592 C 198.783 270.219,225.063 269.497,230.296 267.158 C 231.228 266.741,232.131 266.400,232.302 266.400 C 232.472 266.400,233.239 266.065,234.006 265.655 C 235.903 264.642,239.164 263.752,243.000 263.202 C 247.872 262.503,249.239 262.001,251.221 260.184 C 254.076 257.568,261.274 256.248,264.455 257.758 C 266.445 258.702,267.201 261.161,266.346 263.913 L 265.772 265.763 262.179 266.600 C 258.916 267.359,258.415 267.606,256.738 269.283 C 255.376 270.645,254.274 271.317,252.545 271.841 C 248.650 273.022,247.985 275.187,251.020 276.811 C 252.328 277.511,254.404 280.908,255.282 283.784 C 255.949 285.970,256.214 286.341,257.519 286.921 C 259.445 287.776,261.200 289.432,261.200 290.393 C 261.200 291.707,262.023 291.735,263.335 290.464 C 264.772 289.072,268.850 287.408,271.807 287.007 C 275.260 286.538,277.730 285.552,279.503 283.933 C 281.575 282.041,282.235 281.774,287.730 280.599 C 290.112 280.089,292.097 279.611,292.142 279.536 C 292.187 279.461,292.527 278.733,292.897 277.918 C 293.638 276.286,294.996 275.409,297.414 275.001 C 301.239 274.354,302.231 273.810,303.667 271.569 C 304.159 270.802,305.117 270.304,307.404 269.625 C 310.046 268.840,310.592 268.520,311.285 267.346 C 311.976 266.175,317.443 262.010,318.308 261.995 C 318.468 261.992,318.992 261.385,319.471 260.644 C 322.403 256.116,322.239 222.353,319.241 213.374 C 317.443 207.987,316.379 202.066,316.012 195.400 C 315.637 188.586,315.647 188.622,313.335 185.474 C 312.395 184.195,311.537 182.575,311.428 181.874 C 311.318 181.173,311.030 179.250,310.788 177.600 C 310.146 173.221,309.201 169.686,308.613 169.460 C 307.767 169.136,305.668 165.735,305.185 163.907 C 304.937 162.968,304.479 161.324,304.167 160.254 C 303.855 159.184,303.600 157.973,303.600 157.563 C 303.600 157.153,302.648 155.866,301.485 154.703 C 299.331 152.548,297.578 148.046,297.595 144.708 C 297.599 143.844,297.370 143.561,296.500 143.354 C 294.404 142.856,294.153 142.465,292.355 136.900 C 291.840 135.305,291.255 134.000,291.055 134.000 C 290.173 134.000,286.800 129.393,286.800 128.188 C 286.800 126.607,285.628 125.275,283.995 124.999 C 282.179 124.692,280.275 123.284,279.505 121.676 C 279.224 121.090,278.725 120.579,278.397 120.541 C 271.319 119.731,262.800 116.815,262.800 115.203 C 262.800 114.877,258.548 114.085,252.004 113.193 C 247.909 112.634,242.942 111.073,241.777 109.979 C 240.352 108.640,238.482 108.298,237.678 109.230 C 236.124 111.032,233.754 113.210,233.123 113.417 C 232.722 113.549,232.188 114.526,231.816 115.806 C 231.469 116.997,230.756 118.472,230.230 119.083 L 229.274 120.195 202.537 120.201 C 179.736 120.207,175.669 120.294,174.910 120.794 C 174.208 121.256,173.917 121.277,173.530 120.890 C 173.260 120.620,172.549 120.400,171.949 120.400 C 170.543 120.400,169.376 118.930,168.564 116.136 C 168.164 114.759,167.632 113.835,167.071 113.542 C 166.303 113.141,164.317 111.175,162.584 109.100 C 161.789 108.147,161.599 108.192,159.509 109.820 M245.056 183.651 C 246.345 184.103,247.532 184.706,247.694 184.990 C 247.856 185.275,248.841 185.635,249.885 185.792 C 252.649 186.206,254.257 187.206,257.425 190.480 C 260.852 194.022,260.755 193.865,261.202 196.612 C 261.485 198.353,261.914 199.234,263.172 200.664 C 265.140 202.899,265.410 204.077,265.362 210.219 C 265.322 215.465,265.194 215.854,262.518 218.901 C 261.550 220.004,261.200 220.784,261.200 221.841 C 261.200 224.978,257.499 229.529,253.334 231.514 C 252.050 232.126,250.100 233.285,249.000 234.090 C 246.661 235.801,244.609 236.402,241.123 236.395 C 236.855 236.387,234.740 235.592,228.899 231.800 C 227.544 230.920,225.924 229.914,225.299 229.565 C 224.142 228.919,220.800 223.022,220.800 221.627 C 220.800 221.255,220.247 220.542,219.572 220.042 C 215.278 216.868,215.386 201.129,219.721 198.288 C 220.339 197.883,220.862 196.978,221.160 195.795 C 222.413 190.818,226.067 187.403,231.000 186.600 C 233.051 186.266,234.800 185.600,234.800 185.154 C 234.800 182.727,240.174 181.940,245.056 183.651 M164.189 183.680 C 165.185 184.164,166.000 184.783,166.000 185.055 C 166.000 185.336,166.779 185.668,167.795 185.820 C 172.929 186.590,177.491 190.507,178.998 195.440 C 179.402 196.759,180.235 198.120,181.360 199.294 C 185.148 203.247,184.861 216.814,180.911 220.540 C 180.190 221.220,179.600 222.015,179.600 222.306 C 179.600 222.598,178.848 224.258,177.929 225.996 L 176.258 229.155 172.860 230.823 C 170.992 231.740,168.567 233.120,167.472 233.890 C 164.497 235.981,162.504 236.529,158.668 236.312 C 154.956 236.101,151.208 234.629,150.312 233.029 C 150.119 232.683,149.693 232.400,149.367 232.400 C 149.040 232.400,147.855 231.905,146.733 231.300 C 145.611 230.695,144.377 230.031,143.990 229.824 C 143.604 229.617,142.727 228.627,142.043 227.624 C 141.358 226.621,140.439 225.350,140.001 224.800 C 139.563 224.250,139.091 222.900,138.951 221.800 C 138.779 220.439,138.354 219.416,137.621 218.600 C 133.700 214.231,133.509 205.218,137.243 200.728 C 138.303 199.454,138.800 198.467,138.800 197.636 C 138.800 195.715,139.906 193.490,141.403 192.400 C 142.158 191.850,143.322 190.649,143.990 189.731 C 145.512 187.640,147.252 186.552,150.025 185.957 C 151.216 185.702,152.380 185.233,152.612 184.916 C 154.170 182.786,160.876 182.070,164.189 183.680 " stroke="none" fill="#f8f9fa" fill-rule="evenodd"></path><path id="path2" d="M236.400 106.548 C 232.602 107.502,230.294 110.143,229.743 114.165 C 229.388 116.757,227.339 118.604,225.238 118.226 C 222.849 117.797,209.263 117.504,197.800 117.635 C 191.860 117.702,185.289 117.718,183.197 117.669 C 181.106 117.621,178.091 117.827,176.498 118.129 L 173.602 118.676 172.001 117.059 C 170.674 115.718,170.397 115.165,170.383 113.821 C 170.354 110.953,166.956 106.797,164.644 106.801 C 163.924 106.803,163.982 106.914,165.037 107.557 C 167.081 108.804,169.058 111.588,169.872 114.365 C 170.452 116.345,170.951 117.196,172.057 118.091 L 173.492 119.252 177.646 118.748 C 183.341 118.056,218.402 118.084,223.307 118.784 C 227.940 119.445,229.006 118.775,230.400 114.324 C 232.867 106.448,239.391 104.646,248.600 109.297 C 251.848 110.937,254.431 111.701,258.400 112.193 C 262.418 112.692,265.577 113.575,267.298 114.681 C 270.734 116.889,272.295 117.538,275.809 118.221 C 279.061 118.854,279.646 119.114,282.000 120.979 C 283.430 122.112,285.261 123.473,286.068 124.005 C 286.876 124.537,287.809 125.518,288.143 126.186 C 288.689 127.280,288.751 127.310,288.774 126.494 C 288.809 125.258,287.271 123.011,285.806 122.161 C 285.143 121.776,283.994 120.880,283.253 120.171 C 281.856 118.832,280.377 118.288,274.268 116.861 C 271.813 116.287,270.063 115.589,268.527 114.569 C 265.955 112.862,263.848 112.250,257.800 111.452 C 253.196 110.845,250.492 109.921,248.196 108.170 C 247.040 107.288,240.024 105.777,238.400 106.060 C 238.290 106.079,237.390 106.299,236.400 106.548 M156.400 106.667 C 150.925 107.055,150.437 107.194,148.957 108.795 C 147.106 110.795,146.415 111.028,140.001 111.812 C 134.006 112.545,132.371 113.061,131.412 114.526 C 130.519 115.889,127.480 117.110,124.168 117.437 C 121.006 117.750,119.119 118.576,117.400 120.400 C 116.740 121.100,115.548 122.009,114.750 122.419 C 112.991 123.324,111.200 125.367,111.200 126.469 C 111.200 127.647,110.102 129.283,108.696 130.200 C 107.264 131.134,107.191 131.258,105.760 135.200 C 104.994 137.309,104.106 138.822,102.771 140.293 C 101.726 141.444,100.559 143.244,100.177 144.293 C 98.694 148.368,97.379 151.045,96.343 152.100 C 95.749 152.704,95.053 153.874,94.797 154.700 C 94.541 155.525,94.077 156.767,93.766 157.460 C 93.454 158.154,93.197 159.144,93.193 159.660 C 93.187 160.582,92.543 161.800,90.253 165.220 C 89.591 166.209,89.047 167.623,88.966 168.566 L 88.826 170.200 89.149 168.711 C 89.350 167.779,90.169 166.474,91.335 165.228 C 92.361 164.131,93.200 162.903,93.200 162.497 C 93.200 162.092,93.356 161.589,93.546 161.380 C 93.737 161.171,94.394 159.340,95.006 157.312 C 95.618 155.283,96.450 153.267,96.856 152.833 C 97.963 151.643,100.266 147.239,100.845 145.200 C 101.483 142.951,102.779 140.826,104.282 139.561 C 105.496 138.539,106.510 136.404,106.960 133.925 C 107.153 132.859,107.755 131.971,109.128 130.725 C 110.413 129.560,111.192 128.451,111.529 127.307 C 111.963 125.835,114.098 123.207,114.866 123.202 C 115.012 123.201,115.780 122.570,116.573 121.800 C 117.366 121.030,118.118 120.400,118.246 120.400 C 118.373 120.400,118.976 120.045,119.586 119.610 C 120.244 119.142,122.146 118.586,124.264 118.243 C 127.719 117.684,129.485 116.972,133.057 114.699 C 134.927 113.509,138.160 112.608,142.000 112.208 C 145.226 111.873,148.440 111.053,149.668 110.254 C 151.227 109.239,158.039 107.134,160.800 106.814 L 163.400 106.514 160.800 106.527 C 159.370 106.534,157.390 106.597,156.400 106.667 M288.802 128.104 C 288.801 128.491,289.187 129.121,289.660 129.504 C 292.517 131.815,292.883 132.312,293.853 135.196 C 294.408 136.847,295.468 138.933,296.213 139.842 C 297.723 141.685,299.600 145.026,299.600 145.871 C 299.600 146.747,302.395 152.165,303.030 152.521 C 304.145 153.145,305.253 155.906,306.795 161.906 C 307.058 162.926,307.943 164.410,308.997 165.597 C 310.764 167.586,310.961 168.138,311.348 172.204 C 311.559 174.409,312.957 178.500,313.782 179.325 C 315.386 180.929,316.784 185.958,317.415 192.400 C 317.730 195.612,319.060 201.944,319.547 202.551 C 319.745 202.798,320.037 203.630,320.196 204.400 C 320.354 205.170,320.821 206.817,321.233 208.059 C 322.625 212.262,322.979 218.749,322.990 240.270 C 323.002 263.846,323.369 261.732,318.782 264.480 C 317.362 265.330,315.726 266.540,315.147 267.167 C 313.609 268.833,311.153 270.400,310.081 270.400 C 308.685 270.400,307.613 271.082,305.392 273.382 C 303.675 275.160,302.985 275.569,300.631 276.207 C 298.016 276.914,293.200 279.903,293.200 280.817 C 293.200 281.009,291.895 281.545,290.300 282.008 C 285.490 283.403,284.737 283.670,284.965 283.898 C 286.119 285.052,292.773 282.650,295.414 280.125 C 296.875 278.729,298.084 277.996,299.814 277.458 C 303.031 276.458,305.896 274.869,306.819 273.573 C 307.237 272.986,308.169 272.286,308.890 272.017 C 309.610 271.749,310.678 271.275,311.262 270.964 C 311.846 270.654,312.584 270.400,312.903 270.400 C 313.222 270.400,313.953 269.905,314.527 269.300 C 316.904 266.797,317.516 266.277,320.000 264.651 C 324.022 262.018,323.800 263.645,323.800 236.800 C 323.800 212.024,323.650 209.701,321.793 205.711 C 319.623 201.047,318.022 193.750,318.007 188.450 C 318.000 185.777,316.649 181.893,315.129 180.173 C 313.930 178.817,312.595 174.876,311.789 170.315 C 311.174 166.839,310.830 165.815,309.965 164.890 C 308.581 163.409,306.800 160.051,306.800 158.921 C 306.800 157.254,304.939 152.881,303.819 151.918 C 302.686 150.943,302.236 149.960,300.586 144.857 C 299.559 141.677,299.050 140.744,297.499 139.200 C 296.947 138.650,295.666 136.557,294.653 134.549 C 293.491 132.249,292.401 130.643,291.705 130.209 C 291.097 129.830,290.196 129.043,289.702 128.460 C 288.979 127.606,288.804 127.537,288.802 128.104 M88.316 172.400 C 87.945 174.749,86.210 179.123,85.233 180.173 C 84.005 181.493,82.839 185.102,82.584 188.375 C 82.090 194.703,81.035 200.363,79.971 202.395 C 76.610 208.817,76.202 213.926,76.342 247.845 L 76.400 261.891 77.458 262.949 C 78.040 263.531,79.634 264.558,81.001 265.230 C 82.368 265.903,84.277 267.260,85.243 268.245 C 86.594 269.623,87.604 270.220,89.615 270.831 C 91.742 271.478,92.607 272.016,94.248 273.713 C 96.328 275.865,96.565 276.017,100.585 277.785 C 101.896 278.361,103.910 279.559,105.061 280.447 C 107.203 282.100,111.760 283.976,113.667 283.992 C 114.340 283.997,115.490 284.645,116.775 285.742 C 118.881 287.539,121.931 288.800,124.175 288.800 C 126.169 288.800,129.164 289.981,131.875 291.837 C 135.596 294.384,137.953 294.791,140.901 293.395 C 142.166 292.796,143.200 292.088,143.200 291.820 C 143.200 291.553,143.913 290.761,144.785 290.060 C 146.082 289.018,146.520 288.282,147.196 286.014 C 147.982 283.375,150.828 279.600,152.032 279.600 C 152.234 279.600,152.400 279.268,152.400 278.863 C 152.400 278.457,152.747 277.115,153.172 275.881 C 153.935 273.664,153.935 273.625,153.172 272.655 C 152.747 272.116,152.400 271.502,152.400 271.291 C 152.400 271.081,151.600 270.603,150.623 270.230 C 147.765 269.139,146.744 268.161,147.265 267.017 C 148.446 264.424,158.128 265.123,160.800 267.994 C 162.391 269.704,164.836 270.433,168.720 270.354 C 171.020 270.307,170.978 270.244,168.365 269.821 C 167.576 269.693,165.709 268.852,164.218 267.952 C 160.780 265.879,157.629 264.980,152.592 264.636 C 146.795 264.241,146.497 264.153,146.188 262.747 C 146.043 262.086,145.627 261.439,145.262 261.308 C 144.898 261.177,144.150 260.759,143.600 260.380 C 140.418 258.184,137.594 258.318,135.413 260.770 C 132.925 263.568,139.712 266.881,143.633 264.782 C 144.632 264.247,146.000 265.587,146.000 267.101 C 146.000 268.403,147.912 270.400,149.158 270.400 C 153.256 270.400,153.528 276.219,149.608 280.034 C 148.678 280.939,147.879 282.266,147.439 283.634 C 146.635 286.135,145.014 288.799,144.294 288.802 C 144.022 288.802,143.057 289.766,142.148 290.942 C 139.715 294.093,136.513 294.296,133.109 291.514 C 130.588 289.455,129.436 288.997,124.800 288.217 C 121.037 287.583,120.413 287.355,118.800 286.016 C 116.490 284.099,115.366 283.546,111.129 282.240 C 108.640 281.473,107.008 280.665,105.365 279.390 C 104.104 278.411,102.067 277.244,100.836 276.796 C 96.709 275.295,95.579 274.674,94.205 273.153 C 92.747 271.539,90.895 270.401,89.720 270.398 C 89.324 270.397,88.100 269.679,87.000 268.802 C 85.900 267.925,83.920 266.398,82.600 265.408 C 79.289 262.926,78.451 262.022,77.956 260.400 C 76.427 255.385,77.204 211.298,78.893 207.262 C 79.137 206.678,79.565 205.480,79.843 204.600 C 80.121 203.720,80.784 201.740,81.317 200.200 C 81.850 198.660,82.493 195.960,82.745 194.200 C 84.379 182.809,84.226 183.456,85.921 180.760 C 87.914 177.590,88.891 174.665,88.726 172.361 L 88.600 170.600 88.316 172.400 M237.855 185.910 C 237.577 186.361,234.446 187.593,231.092 188.572 C 227.936 189.494,224.561 192.781,223.261 196.200 C 222.759 197.520,221.748 199.860,221.015 201.400 C 218.423 206.846,218.302 211.176,220.601 216.200 C 225.142 226.125,226.326 227.796,230.328 229.929 C 231.639 230.628,232.957 231.200,233.256 231.200 C 233.555 231.200,234.941 231.740,236.336 232.400 C 239.754 234.017,243.323 234.091,245.521 232.591 C 246.335 232.035,248.260 231.205,249.800 230.745 C 252.905 229.817,257.508 225.759,259.112 222.534 C 260.675 219.393,262.446 209.857,261.885 207.598 C 261.694 206.829,261.382 205.300,261.192 204.200 C 260.557 200.538,259.719 197.391,259.020 196.039 C 258.470 194.975,252.002 188.032,251.521 187.989 C 251.127 187.954,240.384 186.013,239.349 185.789 C 238.651 185.639,237.990 185.693,237.855 185.910 M156.600 186.422 C 152.281 187.116,148.994 187.998,148.026 188.720 C 146.845 189.602,144.221 193.200,144.759 193.200 C 144.960 193.200,145.776 192.294,146.571 191.187 C 148.485 188.524,149.025 188.367,157.200 188.110 C 166.733 187.810,169.379 188.257,171.214 190.476 C 172.992 192.626,173.584 193.200,174.020 193.200 C 174.587 193.200,176.726 197.173,177.400 199.475 C 177.735 200.617,178.282 201.825,178.616 202.159 C 180.731 204.274,180.971 214.156,178.948 215.836 C 178.659 216.075,178.150 217.322,177.815 218.607 C 176.270 224.538,172.255 228.769,167.000 230.004 C 165.460 230.366,163.624 230.963,162.920 231.331 C 161.278 232.189,156.803 232.229,155.200 231.400 C 153.956 230.757,149.138 229.529,148.878 229.789 C 148.792 229.875,149.607 230.209,150.690 230.530 C 151.773 230.852,153.571 231.577,154.685 232.142 C 158.074 233.859,161.436 233.981,164.062 232.481 C 165.238 231.810,167.280 230.858,168.600 230.367 C 174.099 228.322,175.865 226.207,178.945 217.978 C 181.685 210.656,181.861 206.284,179.591 201.921 C 178.938 200.667,178.120 198.777,177.772 197.721 C 176.474 193.783,172.515 189.460,169.140 188.297 C 162.970 186.169,160.481 185.797,156.600 186.422 M245.942 188.185 C 251.906 188.287,251.991 188.323,254.220 191.700 C 254.765 192.525,255.433 193.200,255.705 193.200 C 256.216 193.200,257.955 195.188,258.680 196.600 C 258.906 197.040,259.205 198.660,259.345 200.200 C 259.485 201.740,259.929 204.368,260.331 206.041 C 260.839 208.154,260.949 209.373,260.693 210.041 C 260.096 211.594,259.229 216.838,259.212 219.000 C 259.197 221.030,258.431 222.746,256.951 224.072 C 254.981 225.835,254.113 226.707,253.074 227.962 C 250.886 230.607,240.250 232.791,236.906 231.282 C 235.858 230.809,234.001 230.145,232.781 229.806 C 228.456 228.606,225.340 225.435,223.779 220.646 C 222.940 218.071,222.327 216.874,221.555 216.303 C 219.486 214.774,219.590 205.609,221.711 202.510 C 222.279 201.679,222.871 200.280,223.027 199.400 C 223.460 196.943,224.750 194.859,227.707 191.840 L 230.410 189.080 234.505 188.390 C 236.757 188.011,239.204 187.791,239.942 187.903 C 240.681 188.014,243.381 188.141,245.942 188.185 M142.271 194.500 C 140.934 196.291,140.549 197.143,140.235 199.000 C 140.087 199.880,139.720 201.410,139.420 202.400 C 139.120 203.390,138.554 205.248,138.162 206.530 C 137.539 208.568,137.515 209.093,137.974 210.730 C 138.262 211.758,138.646 213.230,138.827 214.000 C 140.843 222.593,141.181 223.307,144.940 226.900 C 147.452 229.301,149.168 230.488,148.121 229.100 C 146.102 226.426,144.616 224.800,144.190 224.800 C 143.410 224.800,141.298 221.363,141.002 219.614 C 140.332 215.647,140.189 209.999,140.663 206.200 C 140.937 204.000,141.170 201.027,141.181 199.593 C 141.200 197.053,142.274 194.528,143.770 193.506 C 144.064 193.305,144.049 193.210,143.720 193.206 C 143.457 193.203,142.804 193.785,142.271 194.500 M259.400 259.162 C 258.300 259.550,256.860 260.158,256.200 260.513 C 255.540 260.869,254.685 261.253,254.300 261.367 C 253.915 261.481,253.600 261.934,253.600 262.373 C 253.600 263.571,252.444 263.978,247.784 264.420 C 245.456 264.640,242.797 265.084,241.875 265.405 C 240.954 265.726,239.999 265.991,239.752 265.994 C 239.506 265.997,237.886 266.792,236.152 267.761 C 232.700 269.689,228.621 270.393,220.800 270.409 C 218.930 270.413,214.700 270.681,211.400 271.003 C 203.892 271.738,199.791 271.737,190.200 270.997 C 186.020 270.675,180.530 270.436,178.000 270.465 L 173.400 270.519 178.400 270.827 C 181.150 270.997,184.930 271.333,186.800 271.574 C 192.504 272.307,201.500 272.516,207.400 272.050 C 210.480 271.807,216.420 271.340,220.600 271.013 C 224.780 270.685,229.565 270.413,231.233 270.408 C 235.724 270.396,238.598 269.725,239.232 268.540 C 241.047 265.148,252.468 263.863,253.444 266.940 C 253.637 267.547,253.338 268.085,252.257 269.076 C 250.422 270.757,250.982 270.818,252.936 269.149 C 253.805 268.406,254.400 267.538,254.400 267.011 C 254.400 265.487,255.572 264.786,257.408 265.212 C 261.362 266.129,264.583 264.975,265.419 262.341 C 265.759 261.270,262.661 258.161,261.520 258.428 C 261.454 258.443,260.500 258.774,259.400 259.162 M142.723 260.767 L 144.845 261.835 144.004 262.904 C 142.218 265.174,138.608 265.381,136.556 263.330 L 135.086 261.860 136.566 260.503 C 138.282 258.930,139.146 258.967,142.723 260.767 M263.486 260.551 L 264.960 261.902 263.657 263.204 C 262.139 264.722,258.806 264.758,256.824 263.278 C 255.249 262.102,255.566 261.585,258.600 260.384 C 262.139 258.984,261.762 258.971,263.486 260.551 M248.339 271.100 C 245.826 274.106,246.443 277.856,250.015 281.296 C 251.611 282.833,252.400 283.986,252.943 285.573 C 253.377 286.845,254.180 288.173,254.878 288.773 C 255.534 289.338,256.572 290.520,257.186 291.400 C 259.659 294.945,267.526 294.556,270.400 290.748 C 270.750 290.284,275.687 288.800,276.879 288.800 C 278.441 288.800,281.510 287.149,283.156 285.422 C 283.902 284.640,284.341 284.000,284.131 284.000 C 283.921 284.000,283.253 284.519,282.646 285.152 C 281.164 286.699,279.343 287.406,274.722 288.228 C 271.288 288.838,270.625 289.098,268.938 290.491 C 264.477 294.178,261.685 294.360,258.585 291.165 C 257.429 289.974,256.182 288.820,255.815 288.600 C 255.065 288.151,254.612 287.392,252.762 283.486 C 251.965 281.803,251.059 280.526,250.377 280.123 C 247.648 278.511,246.670 273.386,248.739 271.538 C 249.440 270.912,249.768 270.400,249.468 270.400 C 249.169 270.400,248.661 270.715,248.339 271.100 " stroke="none" fill="#9ca4e4" fill-rule="evenodd"></path><path id="path3" d="M154.521 108.363 C 152.057 109.190,149.784 110.082,149.468 110.343 C 148.682 110.996,145.133 111.882,142.000 112.208 C 138.160 112.608,134.927 113.509,133.057 114.699 C 129.485 116.972,127.719 117.684,124.264 118.243 C 122.146 118.586,120.244 119.142,119.586 119.610 C 118.976 120.045,118.373 120.400,118.246 120.400 C 118.118 120.400,117.366 121.030,116.573 121.800 C 115.780 122.570,115.012 123.201,114.866 123.202 C 114.098 123.207,111.963 125.835,111.529 127.307 C 111.192 128.451,110.413 129.560,109.128 130.725 C 107.755 131.971,107.153 132.859,106.960 133.925 C 106.510 136.404,105.496 138.539,104.282 139.561 C 102.779 140.826,101.483 142.951,100.845 145.200 C 100.266 147.239,97.963 151.643,96.856 152.833 C 96.450 153.267,95.618 155.283,95.006 157.312 C 94.394 159.340,93.737 161.171,93.546 161.380 C 93.356 161.589,93.200 162.092,93.200 162.497 C 93.200 162.903,92.366 164.126,91.347 165.216 C 89.382 167.316,88.851 168.842,88.817 172.486 C 88.794 174.998,87.864 177.652,85.916 180.760 C 84.228 183.455,84.378 182.816,82.745 194.200 C 82.493 195.960,81.850 198.660,81.317 200.200 C 80.784 201.740,80.121 203.720,79.843 204.600 C 79.565 205.480,79.137 206.678,78.893 207.262 C 77.204 211.298,76.427 255.385,77.956 260.400 C 78.451 262.022,79.289 262.926,82.600 265.408 C 83.920 266.398,85.900 267.925,87.000 268.802 C 88.100 269.679,89.324 270.397,89.720 270.398 C 90.895 270.401,92.747 271.539,94.205 273.153 C 95.579 274.674,96.709 275.295,100.836 276.796 C 102.067 277.244,104.104 278.411,105.365 279.390 C 107.008 280.665,108.640 281.473,111.129 282.240 C 115.366 283.546,116.490 284.099,118.800 286.016 C 120.413 287.355,121.037 287.583,124.800 288.217 C 129.436 288.997,130.588 289.455,133.109 291.514 C 136.513 294.296,139.715 294.093,142.148 290.942 C 143.057 289.766,144.022 288.802,144.294 288.802 C 145.014 288.799,146.635 286.135,147.439 283.634 C 147.879 282.266,148.678 280.939,149.608 280.034 C 153.528 276.219,153.256 270.400,149.158 270.400 C 147.912 270.400,146.000 268.403,146.000 267.101 C 146.000 265.587,144.632 264.247,143.633 264.782 C 139.712 266.881,132.925 263.568,135.413 260.770 C 137.594 258.318,140.418 258.184,143.600 260.380 C 144.150 260.759,144.898 261.177,145.262 261.308 C 145.627 261.439,146.043 262.086,146.188 262.747 C 146.497 264.153,146.795 264.241,152.592 264.636 C 157.365 264.962,161.006 265.935,163.543 267.563 C 167.308 269.980,167.841 270.083,178.400 270.445 C 183.790 270.630,190.360 270.961,193.000 271.181 C 199.644 271.735,204.393 271.689,211.400 271.003 C 214.700 270.681,218.930 270.413,220.800 270.409 C 228.621 270.393,232.700 269.689,236.152 267.761 C 237.886 266.792,239.506 265.997,239.752 265.994 C 239.999 265.991,240.954 265.726,241.875 265.405 C 242.797 265.084,245.456 264.640,247.784 264.420 C 252.444 263.978,253.600 263.571,253.600 262.373 C 253.600 261.934,253.915 261.482,254.300 261.368 C 254.685 261.254,255.687 260.797,256.526 260.353 C 259.350 258.860,261.581 258.369,262.760 258.983 C 268.344 261.889,264.146 266.774,257.408 265.212 C 255.572 264.786,254.400 265.487,254.400 267.011 C 254.400 268.038,251.850 270.400,250.742 270.400 C 246.930 270.400,246.647 277.920,250.377 280.123 C 251.059 280.526,251.965 281.803,252.762 283.486 C 254.612 287.392,255.065 288.151,255.815 288.600 C 256.182 288.820,257.429 289.974,258.585 291.165 C 261.685 294.360,264.477 294.178,268.938 290.491 C 270.623 289.099,271.291 288.837,274.722 288.224 C 279.512 287.368,280.620 286.956,282.397 285.372 C 283.859 284.069,285.431 283.398,290.300 281.999 C 291.895 281.541,293.200 281.009,293.200 280.817 C 293.200 279.903,298.016 276.914,300.631 276.207 C 302.985 275.569,303.675 275.160,305.392 273.382 C 307.613 271.082,308.685 270.400,310.081 270.400 C 311.153 270.400,313.609 268.833,315.147 267.167 C 315.726 266.540,317.362 265.330,318.782 264.480 C 323.369 261.732,323.002 263.846,322.990 240.270 C 322.979 218.749,322.625 212.262,321.233 208.059 C 320.821 206.817,320.354 205.170,320.196 204.400 C 320.037 203.630,319.745 202.798,319.547 202.551 C 319.060 201.944,317.730 195.612,317.415 192.400 C 316.784 185.958,315.386 180.929,313.782 179.325 C 312.957 178.500,311.559 174.409,311.348 172.204 C 310.961 168.138,310.764 167.586,308.997 165.597 C 307.943 164.410,307.058 162.926,306.795 161.906 C 305.253 155.906,304.145 153.145,303.030 152.521 C 302.395 152.165,299.600 146.747,299.600 145.871 C 299.600 145.026,297.723 141.685,296.213 139.842 C 295.469 138.935,294.420 136.884,293.882 135.284 C 292.847 132.212,292.119 131.152,290.310 130.083 C 289.699 129.722,289.099 129.061,288.976 128.613 C 288.370 126.399,287.427 124.901,286.082 124.015 C 285.267 123.478,283.430 122.112,282.000 120.979 C 279.646 119.114,279.061 118.854,275.809 118.221 C 272.295 117.538,270.734 116.889,267.298 114.681 C 265.577 113.575,262.418 112.692,258.400 112.193 C 254.431 111.701,251.848 110.937,248.600 109.297 C 239.391 104.646,232.867 106.448,230.400 114.324 C 229.006 118.775,227.940 119.445,223.307 118.784 C 218.402 118.084,183.341 118.056,177.646 118.748 L 173.492 119.252 172.057 118.091 C 170.951 117.196,170.452 116.345,169.872 114.365 C 167.730 107.054,163.426 105.371,154.521 108.363 M162.584 109.100 C 164.317 111.175,166.303 113.141,167.071 113.542 C 167.632 113.835,168.164 114.759,168.564 116.136 C 169.376 118.930,170.543 120.400,171.949 120.400 C 172.549 120.400,173.260 120.620,173.530 120.890 C 173.917 121.277,174.208 121.256,174.910 120.794 C 175.669 120.294,179.736 120.207,202.537 120.201 L 229.274 120.195 230.230 119.083 C 230.756 118.472,231.469 116.997,231.816 115.806 C 232.188 114.526,232.722 113.549,233.123 113.417 C 233.754 113.210,236.124 111.032,237.678 109.230 C 238.482 108.298,240.352 108.640,241.777 109.979 C 242.942 111.073,247.909 112.634,252.004 113.193 C 258.548 114.085,262.800 114.877,262.800 115.203 C 262.800 116.815,271.319 119.731,278.397 120.541 C 278.725 120.579,279.224 121.090,279.505 121.676 C 280.275 123.284,282.179 124.692,283.995 124.999 C 285.628 125.275,286.800 126.607,286.800 128.188 C 286.800 129.393,290.173 134.000,291.055 134.000 C 291.255 134.000,291.840 135.305,292.355 136.900 C 294.153 142.465,294.404 142.856,296.500 143.354 C 297.370 143.561,297.599 143.844,297.595 144.708 C 297.578 148.046,299.331 152.548,301.485 154.703 C 302.648 155.866,303.600 157.153,303.600 157.563 C 303.600 157.973,303.855 159.184,304.167 160.254 C 304.479 161.324,304.937 162.968,305.185 163.907 C 305.668 165.735,307.767 169.136,308.613 169.460 C 309.201 169.686,310.146 173.221,310.788 177.600 C 311.030 179.250,311.318 181.173,311.428 181.874 C 311.537 182.575,312.395 184.195,313.335 185.474 C 315.647 188.622,315.637 188.586,316.012 195.400 C 316.379 202.066,317.443 207.987,319.241 213.374 C 321.286 219.498,322.445 251.744,320.829 257.549 C 320.331 259.342,318.831 261.986,318.308 261.995 C 317.443 262.010,311.976 266.175,311.285 267.346 C 310.592 268.520,310.046 268.840,307.404 269.625 C 305.117 270.304,304.159 270.802,303.667 271.569 C 302.231 273.810,301.239 274.354,297.414 275.001 C 294.996 275.409,293.638 276.286,292.897 277.918 C 292.527 278.733,292.187 279.461,292.142 279.536 C 292.097 279.611,290.112 280.089,287.730 280.599 C 282.235 281.774,281.575 282.041,279.503 283.933 C 277.730 285.552,275.260 286.538,271.807 287.007 C 268.850 287.408,264.772 289.072,263.335 290.464 C 262.023 291.735,261.200 291.707,261.200 290.393 C 261.200 289.432,259.445 287.776,257.519 286.921 C 256.214 286.341,255.949 285.970,255.282 283.784 C 254.404 280.908,252.328 277.511,251.020 276.811 C 247.985 275.187,248.650 273.022,252.545 271.841 C 254.274 271.317,255.376 270.645,256.738 269.283 C 258.415 267.606,258.916 267.359,262.179 266.600 L 265.772 265.763 266.346 263.913 C 267.201 261.161,266.445 258.702,264.455 257.758 C 261.274 256.248,254.076 257.568,251.221 260.184 C 249.239 262.001,247.872 262.503,243.000 263.202 C 239.164 263.752,235.903 264.642,234.006 265.655 C 233.239 266.065,232.472 266.400,232.302 266.400 C 232.131 266.400,231.228 266.741,230.296 267.158 C 225.063 269.497,198.783 270.219,178.130 268.592 L 171.000 268.030 167.489 266.246 C 163.764 264.355,160.742 263.542,154.093 262.643 C 150.060 262.098,149.960 262.059,148.574 260.477 C 144.709 256.069,135.026 255.887,133.806 260.200 C 132.714 264.056,133.812 265.567,138.610 266.808 C 141.225 267.485,141.964 267.854,142.599 268.799 C 143.399 269.988,147.559 272.400,148.812 272.400 C 151.329 272.400,151.598 274.692,149.276 276.346 C 147.938 277.299,145.976 280.895,145.045 284.100 C 144.678 285.365,144.175 286.400,143.928 286.400 C 142.943 286.400,140.002 289.075,139.419 290.500 C 138.653 292.376,138.375 292.371,136.594 290.446 C 135.156 288.891,130.192 286.800,127.940 286.800 C 125.655 286.800,122.169 285.427,120.655 283.931 C 119.070 282.365,117.360 281.681,111.400 280.230 C 108.878 279.617,108.503 279.394,107.629 277.990 C 106.545 276.249,105.400 275.685,100.781 274.617 C 98.002 273.974,97.701 273.803,96.981 272.464 C 96.233 271.071,93.488 269.284,92.000 269.222 C 90.918 269.177,88.800 267.628,88.800 266.881 C 88.800 266.404,87.965 265.680,86.400 264.800 C 85.080 264.058,84.000 263.326,84.000 263.174 C 84.000 263.021,83.505 262.685,82.900 262.426 C 80.337 261.330,79.566 259.304,79.178 252.646 C 78.319 237.890,79.000 219.542,80.598 214.400 C 83.305 205.684,83.836 202.978,84.205 196.000 C 84.530 189.864,84.908 188.399,86.808 185.908 C 87.693 184.749,88.489 183.440,88.576 183.000 C 88.663 182.560,89.011 180.850,89.350 179.200 C 89.688 177.550,90.231 174.803,90.558 173.095 C 91.054 170.498,91.450 169.596,92.983 167.581 C 94.481 165.611,95.039 164.369,96.044 160.768 C 97.173 156.725,97.430 156.208,99.189 154.449 C 101.302 152.336,102.400 149.538,102.400 146.267 C 102.400 144.345,103.131 143.200,104.359 143.200 C 105.494 143.200,106.611 141.609,107.794 138.306 C 108.404 136.605,109.170 134.991,109.496 134.720 C 110.694 133.726,113.228 129.365,113.464 127.891 C 113.740 126.166,115.166 124.800,116.692 124.800 C 118.017 124.800,119.944 123.615,120.248 122.613 C 120.649 121.293,121.653 120.400,122.738 120.400 C 126.416 120.400,133.749 118.143,136.506 116.162 C 138.258 114.903,139.119 114.600,142.379 114.092 C 153.156 112.414,157.603 111.305,159.509 109.820 C 161.599 108.192,161.789 108.147,162.584 109.100 M236.500 183.567 C 235.565 184.248,234.800 184.962,234.800 185.154 C 234.800 185.600,233.051 186.266,231.000 186.600 C 226.067 187.403,222.413 190.818,221.160 195.795 C 220.862 196.978,220.339 197.883,219.721 198.288 C 215.386 201.129,215.278 216.868,219.572 220.042 C 220.247 220.542,220.800 221.255,220.800 221.627 C 220.800 223.022,224.142 228.919,225.299 229.565 C 225.924 229.914,227.544 230.920,228.899 231.800 C 234.740 235.592,236.855 236.387,241.123 236.395 C 244.609 236.402,246.661 235.801,249.000 234.090 C 250.100 233.285,252.050 232.126,253.334 231.514 C 257.499 229.529,261.200 224.978,261.200 221.841 C 261.200 220.784,261.550 220.004,262.518 218.901 C 265.194 215.854,265.322 215.465,265.362 210.219 C 265.410 204.077,265.140 202.899,263.172 200.664 C 261.914 199.234,261.485 198.353,261.202 196.612 C 260.755 193.865,260.852 194.022,257.425 190.480 C 254.257 187.206,252.649 186.206,249.885 185.792 C 248.841 185.635,247.856 185.275,247.694 184.990 C 246.506 182.900,238.766 181.916,236.500 183.567 M154.617 183.602 C 153.746 184.007,152.844 184.599,152.612 184.916 C 152.380 185.233,151.216 185.702,150.025 185.957 C 147.252 186.552,145.512 187.640,143.990 189.731 C 143.322 190.649,142.158 191.850,141.403 192.400 C 139.906 193.490,138.800 195.715,138.800 197.636 C 138.800 198.467,138.303 199.454,137.243 200.728 C 133.509 205.218,133.700 214.231,137.621 218.600 C 138.354 219.416,138.779 220.439,138.951 221.800 C 139.091 222.900,139.563 224.250,140.001 224.800 C 140.439 225.350,141.358 226.621,142.043 227.624 C 142.727 228.627,143.604 229.617,143.990 229.824 C 144.377 230.031,145.611 230.695,146.733 231.300 C 147.855 231.905,149.040 232.400,149.367 232.400 C 149.693 232.400,150.119 232.683,150.312 233.029 C 152.528 236.988,162.363 237.481,167.472 233.890 C 168.567 233.120,170.992 231.740,172.860 230.823 L 176.258 229.155 177.929 225.996 C 178.848 224.258,179.600 222.598,179.600 222.306 C 179.600 222.015,180.190 221.220,180.911 220.540 C 184.861 216.814,185.148 203.247,181.360 199.294 C 180.235 198.120,179.402 196.759,178.998 195.440 C 177.491 190.507,172.929 186.590,167.795 185.820 C 166.779 185.668,166.000 185.336,166.000 185.055 C 166.000 183.092,157.926 182.061,154.617 183.602 M246.000 187.019 C 248.970 187.547,251.454 187.983,251.521 187.989 C 252.002 188.032,258.470 194.975,259.020 196.039 C 259.719 197.391,260.557 200.538,261.192 204.200 C 261.382 205.300,261.694 206.829,261.885 207.598 C 262.446 209.857,260.675 219.393,259.112 222.534 C 257.508 225.759,252.905 229.817,249.800 230.745 C 248.260 231.205,246.335 232.035,245.521 232.591 C 243.323 234.091,239.754 234.017,236.336 232.400 C 234.941 231.740,233.555 231.200,233.256 231.200 C 232.957 231.200,231.639 230.628,230.328 229.929 C 226.326 227.796,225.142 226.125,220.601 216.200 C 218.302 211.176,218.423 206.846,221.015 201.400 C 221.748 199.860,222.759 197.520,223.261 196.200 C 224.561 192.781,227.936 189.494,231.092 188.572 C 234.446 187.593,237.577 186.361,237.855 185.910 C 237.990 185.693,238.651 185.639,239.349 185.789 C 240.037 185.938,243.030 186.491,246.000 187.019 M164.308 186.848 C 169.549 188.286,170.812 188.838,172.781 190.548 C 175.124 192.583,176.937 195.189,177.772 197.721 C 178.120 198.777,178.938 200.667,179.591 201.921 C 181.861 206.284,181.685 210.656,178.945 217.978 C 175.865 226.207,174.099 228.322,168.600 230.367 C 167.280 230.858,165.238 231.810,164.062 232.481 C 161.466 233.964,158.069 233.857,154.778 232.189 C 153.715 231.650,151.681 230.827,150.258 230.360 C 148.166 229.673,147.140 229.003,144.893 226.855 C 141.185 223.311,140.839 222.577,138.827 214.000 C 138.646 213.230,138.262 211.758,137.974 210.730 C 137.419 208.749,137.345 209.172,139.429 202.400 C 139.733 201.410,140.100 199.834,140.243 198.897 C 140.565 196.787,142.470 193.706,143.752 193.218 C 144.280 193.018,145.226 192.093,145.856 191.163 C 147.455 188.800,148.623 188.055,151.820 187.353 C 158.779 185.826,160.352 185.763,164.308 186.848 " stroke="none" fill="#b4c4f4" fill-rule="evenodd"></path><path id="path4" d="M157.400 104.790 C 156.080 104.968,153.931 105.133,152.625 105.157 C 149.851 105.207,147.791 106.346,147.457 108.013 C 147.118 109.711,145.039 110.317,137.800 110.824 C 130.840 111.312,129.830 111.641,129.409 113.559 C 128.992 115.456,128.242 115.779,123.640 116.041 C 118.573 116.330,116.296 117.119,115.587 118.832 C 115.261 119.620,114.519 120.264,113.338 120.786 C 111.547 121.578,110.049 123.826,109.996 125.800 C 109.971 126.732,109.101 128.000,108.487 128.000 C 107.594 128.000,105.634 130.090,105.192 131.513 C 104.938 132.331,104.386 133.763,103.965 134.696 C 103.544 135.628,103.200 136.528,103.199 136.696 C 103.199 136.863,102.389 137.512,101.399 138.137 C 100.410 138.762,99.600 139.314,99.600 139.363 C 99.600 142.180,97.662 147.898,96.619 148.159 C 94.588 148.669,93.609 150.431,93.245 154.229 C 92.814 158.724,91.986 160.805,90.311 161.600 C 88.371 162.522,87.548 164.600,87.009 169.941 C 86.467 175.317,86.102 176.255,84.050 177.532 C 81.618 179.046,81.470 179.525,81.193 186.800 C 80.896 194.567,80.076 198.455,78.593 199.130 C 77.234 199.750,75.721 202.665,75.444 205.200 C 75.248 206.986,75.040 247.962,75.167 259.641 C 75.209 263.505,76.138 265.115,78.765 265.876 C 80.820 266.471,81.809 267.276,82.644 269.035 C 83.295 270.408,85.761 271.724,90.000 272.960 C 91.962 273.532,92.287 273.785,93.000 275.301 C 93.576 276.524,94.136 277.098,95.000 277.349 C 99.945 278.789,102.079 279.825,102.585 281.031 C 103.225 282.557,105.022 283.442,108.200 283.797 C 111.702 284.187,113.646 285.091,115.123 287.015 C 116.480 288.782,118.614 289.489,124.716 290.189 C 127.596 290.520,128.575 291.039,129.339 292.642 C 131.088 296.309,140.715 297.292,143.230 294.059 C 143.684 293.477,144.805 292.401,145.722 291.670 C 147.361 290.362,148.379 288.252,148.394 286.131 C 148.402 284.989,150.140 282.952,151.370 282.643 C 153.492 282.111,155.649 275.032,154.514 272.327 C 153.881 270.818,152.273 269.374,150.802 268.994 C 147.394 268.112,148.877 266.400,153.048 266.400 C 156.452 266.400,158.354 267.137,159.365 268.848 C 160.799 271.276,164.558 272.091,175.000 272.235 C 179.180 272.293,184.040 272.541,185.800 272.787 C 187.560 273.032,189.900 273.341,191.000 273.472 C 192.100 273.603,193.353 273.892,193.784 274.114 C 196.358 275.440,205.237 275.443,207.808 274.119 C 208.577 273.722,209.292 273.600,215.593 272.784 C 217.240 272.570,222.958 272.223,228.302 272.012 C 238.881 271.594,240.294 271.222,240.950 268.682 C 241.463 266.694,245.868 265.757,249.700 266.821 C 251.643 267.361,251.594 267.851,249.500 268.796 C 247.155 269.855,246.507 270.445,245.780 272.185 C 244.416 275.451,246.619 282.433,249.193 282.998 C 250.890 283.371,251.861 284.826,252.193 287.494 C 252.496 289.935,255.415 293.407,258.600 295.118 C 262.038 296.964,269.303 295.532,270.974 292.680 C 272.256 290.493,272.968 290.204,278.600 289.584 C 284.159 288.973,284.727 288.749,285.461 286.881 C 286.131 285.176,288.554 284.008,291.454 283.991 C 293.791 283.978,296.276 282.687,297.038 281.090 C 297.614 279.882,298.051 279.621,301.141 278.643 C 306.649 276.899,306.637 276.906,307.217 275.150 C 307.832 273.285,308.231 273.020,311.267 272.458 C 314.681 271.827,316.329 271.001,317.109 269.530 C 318.141 267.583,319.818 266.123,321.353 265.835 C 322.104 265.694,323.192 265.206,323.771 264.751 L 324.824 263.923 324.712 233.662 L 324.600 203.400 323.533 201.585 C 322.946 200.587,322.040 199.543,321.520 199.264 C 320.363 198.645,319.674 195.211,319.182 187.600 C 318.786 181.463,318.359 179.961,316.474 178.067 C 313.871 175.453,313.484 174.548,313.157 170.323 C 312.796 165.674,311.632 162.676,309.910 161.963 C 308.647 161.439,307.432 158.069,306.967 153.800 C 306.654 150.927,305.954 149.682,304.334 149.117 C 302.967 148.641,301.799 146.382,301.170 143.000 C 300.684 140.392,300.022 138.800,299.421 138.800 C 298.342 138.800,295.812 134.626,295.057 131.600 C 294.705 130.192,294.392 129.847,292.779 129.098 C 290.928 128.238,290.249 127.395,289.634 125.200 C 288.902 122.582,288.191 121.682,286.492 121.225 C 285.204 120.878,284.895 120.567,284.391 119.110 C 283.670 117.026,282.429 116.513,277.268 116.167 C 272.756 115.865,271.855 115.496,271.000 113.600 C 270.092 111.587,269.430 111.380,262.158 110.835 C 255.187 110.312,252.964 109.658,252.605 108.025 C 252.106 105.750,248.499 104.800,240.357 104.800 C 230.319 104.800,228.839 105.855,228.810 113.025 C 228.796 116.389,227.465 117.499,224.278 116.802 C 221.808 116.262,179.978 116.218,176.210 116.752 C 172.518 117.275,171.792 116.564,171.448 112.089 C 170.950 105.611,166.910 103.512,157.400 104.790 M242.714 106.576 C 246.006 107.016,247.101 107.335,248.196 108.170 C 250.492 109.921,253.196 110.845,257.800 111.452 C 263.848 112.250,265.955 112.862,268.527 114.569 C 270.063 115.589,271.813 116.287,274.268 116.861 C 280.377 118.288,281.856 118.832,283.253 120.171 C 283.994 120.880,285.143 121.776,285.806 122.161 C 287.213 122.978,288.800 125.230,288.800 126.408 C 288.800 127.586,289.873 129.056,291.436 130.022 C 292.427 130.634,293.287 131.844,294.643 134.529 C 295.662 136.548,296.947 138.650,297.499 139.200 C 299.050 140.744,299.559 141.677,300.586 144.857 C 302.236 149.960,302.686 150.943,303.819 151.918 C 304.939 152.881,306.800 157.254,306.800 158.921 C 306.800 160.051,308.581 163.409,309.965 164.890 C 310.830 165.815,311.174 166.839,311.789 170.315 C 312.595 174.876,313.930 178.817,315.129 180.173 C 316.649 181.893,318.000 185.777,318.007 188.450 C 318.022 193.750,319.623 201.047,321.793 205.711 C 323.650 209.701,323.800 212.024,323.800 236.800 C 323.800 263.645,324.022 262.018,320.000 264.651 C 317.516 266.277,316.904 266.797,314.527 269.300 C 313.953 269.905,313.222 270.400,312.903 270.400 C 312.584 270.400,311.846 270.654,311.262 270.964 C 310.678 271.275,309.610 271.749,308.890 272.017 C 308.169 272.286,307.237 272.986,306.819 273.573 C 305.896 274.869,303.031 276.458,299.814 277.458 C 298.084 277.996,296.875 278.729,295.414 280.125 C 292.748 282.673,292.029 283.009,287.870 283.641 C 284.722 284.119,284.202 284.322,283.070 285.511 C 281.501 287.158,278.412 288.800,276.879 288.800 C 275.687 288.800,270.750 290.284,270.400 290.748 C 267.526 294.556,259.659 294.945,257.186 291.400 C 256.572 290.520,255.534 289.338,254.878 288.773 C 254.180 288.173,253.377 286.845,252.943 285.573 C 252.400 283.986,251.611 282.833,250.015 281.296 C 248.065 279.418,247.761 278.896,247.184 276.443 L 246.538 273.693 247.578 272.161 C 248.310 271.084,249.018 270.547,249.962 270.354 C 251.734 269.992,253.772 267.973,253.436 266.914 C 252.467 263.860,241.037 265.168,239.232 268.540 C 238.598 269.725,235.724 270.396,231.233 270.408 C 229.565 270.413,224.780 270.685,220.600 271.013 C 216.420 271.340,210.480 271.807,207.400 272.050 C 201.176 272.541,193.358 272.326,185.200 271.439 C 182.230 271.116,176.830 270.739,173.200 270.601 C 164.271 270.262,162.570 269.905,160.800 267.998 C 158.132 265.123,148.448 264.422,147.265 267.017 C 146.744 268.161,147.765 269.139,150.623 270.230 C 151.600 270.603,152.400 271.081,152.400 271.291 C 152.400 271.502,152.747 272.116,153.172 272.655 C 153.935 273.625,153.935 273.664,153.172 275.881 C 152.747 277.115,152.400 278.457,152.400 278.863 C 152.400 279.268,152.234 279.600,152.032 279.600 C 150.828 279.600,147.982 283.375,147.196 286.014 C 146.520 288.282,146.082 289.018,144.785 290.060 C 143.913 290.761,143.200 291.553,143.200 291.820 C 143.200 292.088,142.166 292.796,140.901 293.395 C 137.953 294.791,135.596 294.384,131.875 291.837 C 129.164 289.981,126.169 288.800,124.175 288.800 C 121.931 288.800,118.881 287.539,116.775 285.742 C 115.490 284.645,114.340 283.997,113.667 283.992 C 111.760 283.976,107.203 282.100,105.061 280.447 C 103.910 279.559,101.896 278.361,100.585 277.785 C 96.565 276.017,96.328 275.865,94.248 273.713 C 92.607 272.016,91.742 271.478,89.615 270.831 C 87.604 270.220,86.594 269.623,85.243 268.245 C 84.277 267.260,82.368 265.903,81.001 265.230 C 79.634 264.558,78.040 263.531,77.458 262.949 L 76.400 261.891 76.342 247.845 C 76.202 213.926,76.610 208.817,79.971 202.395 C 81.035 200.363,82.090 194.703,82.584 188.375 C 82.839 185.102,84.005 181.493,85.233 180.173 C 86.474 178.839,87.992 174.481,88.593 170.531 C 89.009 167.794,89.437 166.435,90.276 165.184 C 92.537 161.812,93.187 160.580,93.193 159.660 C 93.197 159.144,93.454 158.154,93.766 157.460 C 94.077 156.767,94.541 155.525,94.797 154.700 C 95.053 153.874,95.749 152.704,96.343 152.100 C 97.379 151.045,98.694 148.368,100.177 144.293 C 100.559 143.244,101.726 141.444,102.771 140.293 C 104.106 138.822,104.994 137.309,105.760 135.200 C 107.191 131.258,107.264 131.134,108.696 130.200 C 110.102 129.283,111.200 127.647,111.200 126.469 C 111.200 125.367,112.991 123.324,114.750 122.419 C 115.548 122.009,116.740 121.100,117.400 120.400 C 119.119 118.576,121.006 117.750,124.168 117.437 C 127.480 117.110,130.519 115.889,131.412 114.526 C 132.371 113.061,134.006 112.545,140.001 111.812 C 146.405 111.029,147.108 110.793,148.939 108.814 C 150.509 107.117,150.996 106.998,158.000 106.594 C 166.086 106.128,170.400 108.672,170.400 113.905 C 170.400 115.162,170.691 115.736,172.001 117.059 L 173.602 118.676 176.498 118.129 C 178.091 117.827,181.106 117.621,183.197 117.669 C 185.289 117.718,191.860 117.702,197.800 117.635 C 209.263 117.504,222.849 117.797,225.238 118.226 C 227.339 118.604,229.388 116.757,229.743 114.165 C 230.376 109.548,233.118 106.980,238.400 106.060 C 238.510 106.041,240.451 106.273,242.714 106.576 M234.505 188.390 L 230.410 189.080 227.707 191.840 C 224.750 194.859,223.460 196.943,223.027 199.400 C 222.871 200.280,222.279 201.679,221.711 202.510 C 219.590 205.609,219.486 214.774,221.555 216.303 C 222.327 216.874,222.940 218.071,223.779 220.646 C 225.340 225.435,228.456 228.606,232.781 229.806 C 234.001 230.145,235.858 230.809,236.906 231.282 C 240.250 232.791,250.886 230.607,253.074 227.962 C 254.113 226.707,254.981 225.835,256.951 224.072 C 258.431 222.746,259.197 221.030,259.212 219.000 C 259.229 216.838,260.096 211.594,260.693 210.041 C 260.949 209.373,260.839 208.154,260.331 206.041 C 259.929 204.368,259.485 201.740,259.345 200.200 C 259.205 198.660,258.906 197.040,258.680 196.600 C 257.955 195.188,256.216 193.200,255.705 193.200 C 255.433 193.200,254.765 192.525,254.220 191.700 C 251.991 188.323,251.906 188.287,245.942 188.185 C 243.381 188.141,240.681 188.014,239.942 187.903 C 239.204 187.791,236.757 188.011,234.505 188.390 M151.316 188.392 C 148.546 188.708,148.037 189.021,146.379 191.430 C 145.745 192.352,144.815 193.212,144.313 193.341 C 142.674 193.761,141.203 196.721,141.181 199.642 C 141.170 201.049,140.937 204.000,140.663 206.200 C 139.588 214.820,141.492 224.800,144.211 224.800 C 144.506 224.800,145.589 225.871,146.617 227.181 C 148.342 229.376,148.664 229.597,150.744 230.019 C 151.985 230.270,153.788 230.819,154.751 231.238 C 156.998 232.216,161.136 232.263,162.920 231.331 C 163.624 230.963,165.460 230.366,167.000 230.004 C 172.255 228.769,176.270 224.538,177.815 218.607 C 178.150 217.322,178.659 216.075,178.948 215.836 C 180.971 214.156,180.731 204.274,178.616 202.159 C 178.282 201.825,177.735 200.617,177.400 199.475 C 176.587 196.698,174.609 193.320,173.609 193.003 C 173.164 192.862,172.795 192.623,172.789 192.473 C 172.637 188.828,163.215 187.037,151.316 188.392 M169.231 190.282 C 169.846 190.645,170.447 191.331,170.566 191.806 C 170.685 192.281,171.647 193.207,172.704 193.864 C 175.094 195.350,175.384 196.229,175.976 203.800 C 176.923 215.919,175.850 223.023,172.835 224.582 C 172.160 224.931,171.317 225.660,170.962 226.201 C 168.241 230.355,147.600 230.159,147.600 225.980 C 147.600 225.464,146.958 224.888,145.635 224.218 C 142.394 222.575,142.369 222.456,142.436 209.082 C 142.500 196.496,142.655 195.538,144.742 194.747 C 146.184 194.201,147.600 192.813,147.600 191.946 C 147.600 191.554,148.095 190.765,148.700 190.194 L 149.800 189.156 158.956 189.388 C 166.454 189.579,168.315 189.741,169.231 190.282 M251.315 190.005 C 251.878 190.448,252.447 191.303,252.579 191.905 C 252.809 192.946,254.932 194.800,255.895 194.800 C 257.372 194.800,257.681 197.111,257.794 209.000 C 257.920 222.146,257.779 222.908,254.982 224.235 C 254.135 224.637,253.258 225.494,252.813 226.355 C 251.524 228.849,251.239 228.911,241.261 228.854 C 231.733 228.799,229.600 228.310,229.600 226.182 C 229.600 225.865,228.851 225.062,227.935 224.399 C 225.349 222.526,225.028 221.837,224.759 217.600 C 224.584 214.834,224.244 213.156,223.508 211.431 C 222.580 209.255,222.543 208.954,223.057 207.725 C 223.797 205.955,224.800 200.637,224.800 198.486 C 224.800 196.334,225.588 195.117,227.834 193.801 C 228.909 193.171,229.600 192.478,229.600 192.029 C 229.600 189.967,232.630 189.387,244.046 189.266 C 249.756 189.206,250.380 189.269,251.315 190.005 M136.566 260.503 L 135.086 261.860 136.556 263.330 C 138.608 265.381,142.218 265.174,144.004 262.904 L 144.845 261.835 142.723 260.767 C 139.146 258.967,138.282 258.930,136.566 260.503 M258.600 260.384 C 255.566 261.585,255.249 262.102,256.824 263.278 C 258.806 264.758,262.139 264.722,263.657 263.204 L 264.960 261.902 263.486 260.551 C 261.762 258.971,262.139 258.984,258.600 260.384 M141.356 261.356 L 142.600 261.870 140.916 262.735 C 138.788 263.828,138.345 263.819,137.255 262.659 L 136.371 261.717 137.285 261.070 C 138.237 260.397,139.192 260.464,141.356 261.356 M263.117 261.123 L 264.034 261.829 263.050 262.753 C 261.932 263.803,260.587 263.703,258.640 262.426 L 257.496 261.676 259.448 261.080 C 262.002 260.299,262.047 260.300,263.117 261.123 " stroke="none" fill="#7c84fc" fill-rule="evenodd"></path></g></svg>