<svg id="svg" version="1.1" xmlns="http://www.w3.org/2000/svg" xmlns:xlink="http://www.w3.org/1999/xlink" width="400" height="400" viewBox="0, 0, 400,400"><g id="svgg"><path id="path0" d="M181.800 52.040 C 177.558 52.645,173.088 53.637,171.948 54.227 C 171.339 54.542,170.403 54.800,169.869 54.800 C 169.335 54.800,168.260 55.067,167.480 55.392 C 166.701 55.718,163.664 56.449,160.731 57.016 C 157.799 57.584,154.767 58.185,153.993 58.353 C 153.219 58.521,151.624 59.320,150.448 60.129 C 149.272 60.938,148.035 61.600,147.699 61.600 C 145.375 61.600,139.252 64.102,137.000 65.972 C 135.320 67.367,134.021 68.091,132.669 68.385 C 130.292 68.902,129.618 69.250,126.647 71.496 C 124.211 73.336,121.271 74.800,120.008 74.800 C 119.608 74.800,118.434 75.565,117.397 76.500 C 115.744 77.992,114.821 78.676,111.454 80.906 C 109.652 82.099,108.831 82.873,108.602 83.593 C 108.467 84.018,107.532 84.778,106.523 85.281 C 105.514 85.785,103.768 87.208,102.644 88.444 C 101.520 89.679,100.060 90.973,99.400 91.318 C 98.740 91.664,97.210 92.966,96.001 94.212 C 94.791 95.458,93.483 96.648,93.094 96.857 C 92.705 97.065,91.833 98.217,91.155 99.418 C 90.478 100.618,89.774 101.600,89.592 101.600 C 89.014 101.600,85.990 104.940,85.192 106.460 C 84.770 107.263,83.789 108.312,83.012 108.792 C 82.236 109.272,81.600 109.843,81.600 110.059 C 81.600 110.632,79.759 113.034,77.111 115.915 C 75.840 117.298,74.798 118.738,74.796 119.115 C 74.789 120.282,72.897 123.942,71.067 126.325 C 69.362 128.546,69.010 129.272,68.001 132.643 C 67.731 133.546,66.948 134.886,66.262 135.620 C 64.552 137.450,63.482 139.578,62.194 143.707 C 61.593 145.636,60.591 147.857,59.966 148.642 C 59.342 149.428,58.747 150.369,58.644 150.735 C 58.463 151.377,57.621 154.965,56.193 161.178 C 55.817 162.816,55.374 164.436,55.208 164.778 C 54.905 165.404,54.528 166.429,53.173 170.307 C 49.961 179.496,50.321 230.040,53.630 234.600 C 54.270 235.481,56.017 241.369,57.201 246.631 C 58.811 253.789,58.647 253.297,59.980 254.975 C 60.611 255.769,61.522 257.720,62.003 259.310 C 63.185 263.211,64.686 266.259,66.416 268.273 C 67.297 269.299,68.107 270.848,68.506 272.273 C 68.865 273.553,69.753 275.486,70.479 276.568 C 71.206 277.651,72.292 279.271,72.893 280.168 C 73.493 281.066,74.263 282.624,74.602 283.630 C 74.941 284.637,75.859 286.077,76.643 286.830 C 77.427 287.584,78.348 288.740,78.690 289.400 C 79.428 290.823,80.785 292.559,83.071 295.002 C 83.990 295.985,84.858 297.151,84.998 297.594 C 85.139 298.037,85.383 298.400,85.541 298.400 C 85.698 298.400,86.165 298.970,86.576 299.668 C 86.988 300.365,88.287 301.849,89.463 302.966 C 90.638 304.083,91.600 305.257,91.600 305.576 C 91.600 306.249,93.553 308.400,94.164 308.400 C 94.391 308.400,95.876 309.750,97.463 311.400 C 99.050 313.050,100.561 314.400,100.820 314.400 C 101.080 314.400,102.216 315.291,103.346 316.381 C 105.642 318.595,109.409 321.600,109.889 321.600 C 110.062 321.600,111.158 322.502,112.327 323.605 C 113.495 324.707,115.204 325.989,116.125 326.453 C 117.674 327.233,121.098 329.748,121.629 330.496 C 121.755 330.673,123.345 331.344,125.162 331.986 C 128.155 333.045,131.170 334.809,131.546 335.721 C 131.722 336.149,136.653 338.400,137.414 338.400 C 138.128 338.400,140.868 339.968,141.495 340.735 C 142.212 341.611,149.081 343.933,153.153 344.675 C 153.897 344.811,155.463 345.499,156.634 346.204 C 159.291 347.804,160.247 348.036,170.600 349.591 C 175.220 350.285,180.350 351.122,182.000 351.451 C 189.992 353.044,200.175 353.503,207.000 352.578 C 209.420 352.250,213.290 351.819,215.600 351.620 C 217.910 351.420,222.140 350.788,225.000 350.215 C 227.860 349.642,231.910 348.979,234.000 348.742 C 238.800 348.198,242.609 347.125,244.378 345.818 C 245.135 345.258,246.002 344.800,246.303 344.800 C 247.774 344.800,257.921 341.304,258.794 340.496 C 259.821 339.545,261.774 338.629,264.407 337.861 C 266.568 337.231,271.600 334.290,271.600 333.657 C 271.600 333.352,273.996 332.189,276.608 331.225 C 277.772 330.796,279.115 329.586,282.989 325.481 C 285.159 323.182,285.223 322.623,283.437 321.569 C 282.649 321.104,281.257 319.508,280.137 317.787 C 279.072 316.150,278.010 314.808,277.778 314.805 C 277.193 314.798,274.800 312.273,274.800 311.663 C 274.800 311.389,273.675 310.019,272.300 308.619 C 270.925 307.220,268.974 305.154,267.965 304.028 L 266.129 301.982 263.165 302.235 C 259.719 302.528,256.027 304.089,253.200 306.448 C 251.843 307.579,250.693 308.110,248.531 308.600 C 246.921 308.965,243.936 310.142,241.731 311.282 C 237.157 313.647,235.135 314.262,230.190 314.790 C 228.205 315.002,225.235 315.634,223.590 316.195 C 217.849 318.152,216.961 318.336,211.141 318.767 C 198.815 319.679,185.238 318.706,178.400 316.422 C 176.236 315.699,174.550 315.330,169.000 314.367 C 165.616 313.779,163.171 312.966,159.200 311.107 C 156.161 309.684,153.122 308.595,151.076 308.193 C 150.458 308.072,149.198 307.297,148.276 306.471 C 146.638 305.003,144.015 303.574,140.400 302.179 C 139.410 301.797,137.880 300.823,137.000 300.016 C 136.120 299.208,134.916 298.343,134.325 298.094 C 133.734 297.844,131.844 296.401,130.125 294.887 C 128.406 293.373,126.581 291.910,126.068 291.636 C 124.772 290.943,123.863 290.177,120.925 287.300 C 119.521 285.925,118.140 284.800,117.856 284.800 C 117.169 284.800,115.974 283.422,114.660 281.118 C 114.071 280.084,113.259 279.004,112.857 278.718 C 111.883 278.027,108.400 273.719,108.400 273.206 C 108.400 272.983,107.397 271.789,106.170 270.552 C 104.760 269.131,103.440 267.256,102.581 265.452 C 101.833 263.884,100.705 262.116,100.073 261.525 C 99.372 260.869,98.573 259.388,98.021 257.725 C 97.043 254.774,95.915 252.725,93.853 250.156 C 92.912 248.984,92.395 247.779,92.051 245.956 C 91.786 244.550,91.394 242.523,91.180 241.451 C 90.966 240.379,90.070 237.983,89.188 236.127 C 82.860 222.807,83.179 179.787,89.687 168.800 C 90.746 167.014,90.937 166.365,92.229 160.200 C 93.005 156.495,93.184 156.102,95.317 153.408 C 97.050 151.221,98.131 148.999,98.544 146.774 C 98.705 145.908,99.355 144.819,100.204 143.996 C 100.972 143.252,101.600 142.423,101.600 142.155 C 101.600 141.886,101.742 141.607,101.916 141.533 C 102.376 141.340,104.634 137.176,104.924 135.988 C 105.060 135.431,105.894 134.441,106.776 133.788 C 107.659 133.134,108.385 132.457,108.391 132.283 C 108.396 132.109,108.767 131.573,109.215 131.091 C 109.664 130.610,110.126 129.852,110.242 129.408 C 110.357 128.964,111.263 127.984,112.254 127.232 C 113.288 126.446,114.470 125.045,115.030 123.941 C 115.577 122.862,116.495 121.765,117.123 121.440 C 118.340 120.810,121.600 117.456,121.600 116.832 C 121.600 116.620,122.680 115.871,124.000 115.168 C 125.320 114.464,126.403 113.779,126.406 113.644 C 126.423 112.997,128.792 110.820,130.336 110.033 C 131.289 109.546,133.047 108.170,134.243 106.974 C 135.439 105.778,136.733 104.800,137.120 104.800 C 137.506 104.800,138.897 104.233,140.211 103.540 C 141.525 102.847,143.075 102.034,143.655 101.733 C 144.235 101.432,144.800 100.843,144.910 100.423 C 145.051 99.884,145.915 99.417,147.855 98.833 C 151.103 97.854,155.200 95.997,155.200 95.504 C 155.200 94.511,161.806 92.513,168.136 91.591 C 169.612 91.376,171.314 90.749,172.759 89.888 C 174.978 88.567,175.683 88.377,181.200 87.616 C 191.270 86.228,217.155 86.464,222.397 87.993 C 223.166 88.217,224.286 88.400,224.886 88.400 C 225.486 88.400,226.747 88.935,227.688 89.588 C 229.444 90.807,229.882 90.937,237.370 92.462 C 239.773 92.952,242.416 93.723,243.243 94.176 C 248.529 97.072,250.536 98.021,252.257 98.437 C 253.382 98.709,254.734 99.409,255.467 100.100 C 256.164 100.757,257.154 101.525,257.667 101.808 C 259.953 103.068,263.735 104.800,264.201 104.800 C 264.483 104.800,265.595 105.677,266.672 106.749 C 267.750 107.821,269.345 109.062,270.218 109.507 C 271.091 109.952,272.743 111.325,273.891 112.558 C 275.038 113.791,276.262 114.800,276.610 114.800 C 276.957 114.800,278.537 116.123,280.121 117.739 C 281.704 119.356,283.360 120.931,283.800 121.239 C 284.240 121.548,284.921 122.378,285.313 123.085 C 285.706 123.791,287.098 125.391,288.408 126.640 C 289.717 127.889,290.992 129.475,291.241 130.164 C 291.491 130.854,292.368 131.924,293.191 132.543 C 294.510 133.535,298.400 139.619,298.400 140.690 C 298.400 140.884,299.016 141.640,299.768 142.369 C 300.630 143.205,301.614 144.900,302.425 146.948 C 303.134 148.737,304.363 151.145,305.157 152.301 C 307.362 155.511,308.400 157.647,308.405 158.985 C 308.412 160.898,309.344 163.869,311.294 168.200 C 313.835 173.844,314.767 177.933,314.805 183.600 C 314.825 186.543,315.280 190.422,316.589 198.800 C 317.313 203.436,316.952 211.295,315.753 217.000 C 315.429 218.540,315.063 221.240,314.940 223.000 C 314.561 228.428,313.469 231.935,311.500 234.056 C 310.961 234.637,310.104 235.807,309.596 236.656 C 308.294 238.832,306.827 240.353,305.200 241.213 C 304.430 241.620,303.179 242.547,302.419 243.272 C 299.938 245.643,289.778 245.796,287.409 243.498 C 286.744 242.853,285.300 241.729,284.200 241.000 C 281.466 239.188,280.917 238.429,279.616 234.662 C 276.632 226.018,276.755 226.897,276.382 211.522 C 276.184 203.379,275.784 195.452,275.437 192.800 C 275.106 190.270,274.827 187.266,274.817 186.125 C 274.790 182.793,273.705 178.891,271.616 174.600 C 269.198 169.634,268.400 167.700,268.400 166.806 C 268.400 166.423,267.442 164.811,266.271 163.223 C 265.099 161.635,263.524 159.160,262.771 157.723 C 262.017 156.285,261.130 155.013,260.800 154.895 C 259.885 154.568,258.400 153.123,258.400 152.559 C 258.400 151.467,247.985 141.600,246.832 141.600 C 246.601 141.600,245.935 140.880,245.353 140.000 C 244.770 139.120,244.142 138.400,243.957 138.400 C 243.653 138.400,240.225 136.759,236.903 135.023 C 236.190 134.650,235.380 134.024,235.103 133.632 C 234.448 132.704,232.289 131.601,231.120 131.597 C 229.737 131.592,225.789 130.272,222.229 128.624 C 212.552 124.143,188.564 124.063,178.697 128.478 C 174.343 130.426,170.968 131.600,169.721 131.600 C 168.496 131.600,165.806 132.970,165.126 133.941 C 164.837 134.354,162.507 135.702,159.949 136.937 C 156.997 138.361,155.228 139.449,155.106 139.916 C 155.000 140.320,153.583 141.556,151.957 142.664 C 150.331 143.771,148.804 145.063,148.564 145.536 C 147.905 146.837,146.791 147.949,145.849 148.248 C 144.905 148.548,144.662 148.817,142.359 152.121 C 141.470 153.398,140.323 154.601,139.812 154.796 C 139.239 155.013,138.507 155.965,137.905 157.275 C 136.842 159.586,134.559 163.263,133.288 164.710 C 132.432 165.684,132.071 166.542,131.055 170.000 C 130.700 171.210,130.010 172.830,129.522 173.600 C 126.629 178.163,125.433 183.525,124.810 194.735 C 123.965 209.934,125.340 222.326,128.586 228.772 C 130.332 232.239,131.600 235.545,131.600 236.632 C 131.600 237.089,132.309 238.439,133.175 239.632 C 134.041 240.824,135.512 243.140,136.445 244.777 C 137.378 246.414,138.709 248.394,139.404 249.177 C 140.098 249.960,141.437 251.655,142.379 252.945 C 144.310 255.589,147.068 258.396,147.748 258.409 C 147.997 258.413,148.707 259.133,149.326 260.009 C 149.945 260.884,150.710 261.600,151.026 261.600 C 151.342 261.600,151.600 261.766,151.600 261.969 C 151.600 262.172,152.815 263.148,154.300 264.137 C 155.785 265.127,157.529 266.491,158.175 267.168 C 158.821 267.846,159.571 268.400,159.842 268.400 C 160.113 268.400,161.230 268.850,162.325 269.400 C 163.420 269.950,164.515 270.400,164.758 270.400 C 165.001 270.400,165.200 270.568,165.200 270.773 C 165.200 270.978,165.605 271.273,166.100 271.427 C 166.595 271.582,167.582 272.216,168.293 272.836 C 169.658 274.026,170.227 274.218,176.600 275.636 C 178.800 276.125,181.770 277.019,183.200 277.622 C 190.514 280.706,211.518 280.703,217.568 277.617 C 219.066 276.852,225.634 275.037,228.502 274.595 C 229.332 274.467,231.202 273.542,232.684 272.528 C 235.174 270.823,239.974 268.400,240.861 268.400 C 241.073 268.400,242.050 267.647,243.032 266.727 C 244.013 265.807,245.332 264.805,245.963 264.499 C 246.593 264.194,247.445 263.636,247.855 263.260 C 248.265 262.883,249.394 262.340,250.364 262.052 C 251.334 261.765,252.665 261.141,253.321 260.665 C 254.293 259.960,254.552 259.907,254.717 260.378 C 254.946 261.035,258.682 264.897,259.614 265.441 C 259.952 265.639,260.624 266.315,261.108 266.945 C 261.921 268.005,265.255 270.400,265.917 270.400 C 266.075 270.400,267.104 271.205,268.203 272.189 C 270.383 274.141,270.851 274.361,275.000 275.378 C 276.540 275.755,278.880 276.559,280.200 277.164 C 287.187 280.366,302.512 280.357,308.000 277.147 C 308.990 276.568,310.790 275.773,312.000 275.380 C 316.684 273.857,317.633 273.463,318.590 272.646 C 320.776 270.777,322.221 269.787,323.967 268.962 C 325.163 268.397,326.982 266.809,329.200 264.396 C 331.070 262.361,333.407 259.893,334.394 258.912 C 336.555 256.764,338.396 254.073,338.398 253.061 C 338.399 252.655,339.075 251.551,339.900 250.608 C 341.040 249.305,341.819 247.664,343.148 243.766 C 344.109 240.946,345.224 238.180,345.626 237.619 C 347.080 235.592,348.034 231.647,348.426 226.046 C 349.729 207.446,349.892 199.490,349.183 189.200 C 348.963 186.010,348.618 180.880,348.415 177.800 C 348.045 172.188,347.267 168.817,345.601 165.600 C 345.202 164.830,344.477 162.400,343.990 160.200 C 343.503 158.000,342.844 155.210,342.525 154.000 C 342.207 152.790,341.794 151.198,341.607 150.461 C 341.420 149.725,340.914 148.735,340.483 148.261 C 339.402 147.072,338.980 146.177,337.802 142.569 C 336.877 139.733,335.044 136.301,333.781 135.038 C 333.030 134.287,331.600 131.319,331.600 130.510 C 331.600 129.532,330.157 126.896,328.726 125.260 C 328.082 124.523,327.009 122.723,326.342 121.260 C 325.675 119.797,324.854 118.012,324.517 117.294 C 324.179 116.576,323.430 115.706,322.852 115.361 C 322.273 115.017,320.990 113.484,320.000 111.954 C 319.010 110.425,317.606 108.820,316.880 108.389 C 316.155 107.957,315.298 106.976,314.978 106.209 C 314.657 105.442,313.226 103.656,311.798 102.242 C 310.369 100.827,309.200 99.482,309.200 99.252 C 309.200 98.598,302.519 92.082,301.093 91.344 C 300.389 90.981,298.709 89.540,297.360 88.143 C 296.010 86.746,294.261 85.334,293.473 85.005 C 292.535 84.613,291.811 83.922,291.375 83.003 C 291.008 82.231,290.539 81.600,290.332 81.600 C 289.741 81.600,285.060 78.336,284.466 77.510 C 283.802 76.587,281.016 74.800,280.241 74.800 C 279.072 74.800,276.108 73.250,273.494 71.271 C 271.670 69.891,269.928 68.974,268.084 68.425 C 266.281 67.888,264.975 67.209,264.210 66.410 C 262.395 64.516,258.600 62.893,253.200 61.701 C 252.650 61.580,251.210 60.847,250.000 60.074 C 248.790 59.300,247.170 58.534,246.400 58.371 C 245.630 58.208,242.750 57.614,240.000 57.050 C 234.331 55.887,229.741 54.690,227.415 53.767 C 222.602 51.858,191.366 50.675,181.800 52.040 M210.506 161.208 C 212.097 161.435,213.996 161.716,214.724 161.833 C 215.452 161.950,216.712 162.629,217.524 163.343 C 218.336 164.056,220.833 165.523,223.072 166.602 C 226.478 168.242,227.284 168.812,227.998 170.082 C 228.467 170.917,229.114 171.600,229.436 171.600 C 230.263 171.600,233.248 174.739,234.200 176.610 C 234.640 177.475,235.564 178.681,236.253 179.292 C 238.248 181.057,239.710 184.558,241.811 192.600 C 242.099 193.700,242.636 195.410,243.004 196.400 C 244.071 199.266,243.974 205.948,242.820 209.000 C 242.321 210.320,241.768 212.120,241.590 213.000 C 240.400 218.886,238.532 223.633,237.013 224.628 C 236.521 224.951,235.777 225.886,235.359 226.707 C 234.942 227.528,234.501 228.290,234.381 228.400 C 234.260 228.510,233.726 229.230,233.194 230.000 C 231.926 231.835,231.935 231.826,228.100 234.734 C 226.285 236.110,224.800 237.387,224.800 237.571 C 224.800 238.002,220.967 239.878,217.834 240.980 C 216.495 241.451,214.950 242.133,214.400 242.497 C 210.951 244.778,209.961 244.955,200.600 244.961 C 191.188 244.968,190.246 244.822,186.820 242.823 C 185.819 242.239,183.830 241.342,182.400 240.830 C 179.087 239.644,176.573 238.213,174.800 236.506 C 172.079 233.885,169.311 231.600,168.859 231.600 C 168.606 231.600,168.399 231.375,168.398 231.100 C 168.397 230.825,167.848 230.015,167.178 229.300 C 166.507 228.585,165.687 227.349,165.355 226.553 C 165.022 225.757,164.242 224.679,163.620 224.156 C 161.648 222.496,159.333 215.290,157.992 206.632 C 157.756 205.109,157.479 203.727,157.376 203.561 C 157.089 203.097,158.728 193.386,159.628 190.212 C 161.613 183.210,162.009 182.274,163.781 180.379 C 164.744 179.349,165.993 177.627,166.557 176.553 C 167.896 173.999,168.246 173.599,170.481 172.072 C 171.516 171.366,172.655 170.292,173.013 169.685 C 173.454 168.939,174.973 167.938,177.709 166.591 C 179.933 165.496,182.457 164.014,183.318 163.297 C 185.078 161.832,185.095 161.827,190.600 161.223 C 192.800 160.982,195.140 160.713,195.800 160.624 C 197.690 160.370,207.313 160.752,210.506 161.208 " stroke="none" fill="#efa01d" fill-rule="evenodd"></path><path id="path1" d="M0.000 200.000 L 0.000 400.000 200.000 400.000 L 400.000 400.000 400.000 200.000 L 400.000 0.000 200.000 0.000 L 0.000 0.000 0.000 200.000 M220.615 52.371 C 223.483 52.793,226.543 53.421,227.415 53.767 C 229.741 54.690,234.331 55.887,240.000 57.050 C 242.750 57.614,245.630 58.208,246.400 58.371 C 247.170 58.534,248.790 59.300,250.000 60.074 C 251.210 60.847,252.650 61.580,253.200 61.701 C 258.600 62.893,262.395 64.516,264.210 66.410 C 264.975 67.209,266.281 67.888,268.084 68.425 C 269.928 68.974,271.670 69.891,273.494 71.271 C 276.108 73.250,279.072 74.800,280.241 74.800 C 281.016 74.800,283.802 76.587,284.466 77.510 C 285.060 78.336,289.741 81.600,290.332 81.600 C 290.539 81.600,291.008 82.231,291.375 83.003 C 291.811 83.922,292.535 84.613,293.473 85.005 C 294.261 85.334,296.010 86.746,297.360 88.143 C 298.709 89.540,300.389 90.981,301.093 91.344 C 302.519 92.082,309.200 98.598,309.200 99.252 C 309.200 99.482,310.369 100.827,311.798 102.242 C 313.226 103.656,314.657 105.442,314.978 106.209 C 315.298 106.976,316.155 107.957,316.880 108.389 C 317.606 108.820,319.010 110.425,320.000 111.954 C 320.990 113.484,322.273 115.017,322.852 115.361 C 323.430 115.706,324.179 116.576,324.517 117.294 C 324.854 118.012,325.675 119.797,326.342 121.260 C 327.009 122.723,328.082 124.523,328.726 125.260 C 330.157 126.896,331.600 129.532,331.600 130.510 C 331.600 131.319,333.030 134.287,333.781 135.038 C 335.044 136.301,336.877 139.733,337.802 142.569 C 338.980 146.177,339.402 147.072,340.483 148.261 C 340.914 148.735,341.420 149.725,341.607 150.461 C 341.794 151.198,342.207 152.790,342.525 154.000 C 342.844 155.210,343.503 158.000,343.990 160.200 C 344.477 162.400,345.202 164.830,345.601 165.600 C 347.267 168.817,348.045 172.188,348.415 177.800 C 348.618 180.880,348.963 186.010,349.183 189.200 C 349.892 199.490,349.729 207.446,348.426 226.046 C 348.034 231.647,347.080 235.592,345.626 237.619 C 345.224 238.180,344.109 240.946,343.148 243.766 C 341.819 247.664,341.040 249.305,339.900 250.608 C 339.075 251.551,338.399 252.655,338.398 253.061 C 338.396 254.073,336.555 256.764,334.394 258.912 C 333.407 259.893,331.070 262.361,329.200 264.396 C 326.982 266.809,325.163 268.397,323.967 268.962 C 322.221 269.787,320.776 270.777,318.590 272.646 C 317.633 273.463,316.684 273.857,312.000 275.380 C 310.790 275.773,308.990 276.568,308.000 277.147 C 302.512 280.357,287.187 280.366,280.200 277.164 C 278.880 276.559,276.540 275.755,275.000 275.378 C 270.851 274.361,270.383 274.141,268.203 272.189 C 267.104 271.205,266.075 270.400,265.917 270.400 C 265.255 270.400,261.921 268.005,261.108 266.945 C 260.624 266.315,259.952 265.639,259.614 265.441 C 258.682 264.897,254.946 261.035,254.717 260.378 C 254.552 259.907,254.293 259.960,253.321 260.665 C 252.665 261.141,251.334 261.765,250.364 262.052 C 249.394 262.340,248.265 262.883,247.855 263.260 C 247.445 263.636,246.593 264.194,245.963 264.499 C 245.332 264.805,244.013 265.807,243.032 266.727 C 242.050 267.647,241.073 268.400,240.861 268.400 C 239.974 268.400,235.174 270.823,232.684 272.528 C 231.202 273.542,229.332 274.467,228.502 274.595 C 225.634 275.037,219.066 276.852,217.568 277.617 C 211.518 280.703,190.514 280.706,183.200 277.622 C 181.770 277.019,178.800 276.125,176.600 275.636 C 170.227 274.218,169.658 274.026,168.293 272.836 C 167.582 272.216,166.595 271.582,166.100 271.427 C 165.605 271.273,165.200 270.978,165.200 270.773 C 165.200 270.568,165.001 270.400,164.758 270.400 C 164.515 270.400,163.420 269.950,162.325 269.400 C 161.230 268.850,160.113 268.400,159.842 268.400 C 159.571 268.400,158.821 267.846,158.175 267.168 C 157.529 266.491,155.785 265.127,154.300 264.137 C 152.815 263.148,151.600 262.172,151.600 261.969 C 151.600 261.766,151.342 261.600,151.026 261.600 C 150.710 261.600,149.945 260.884,149.326 260.009 C 148.707 259.133,147.997 258.413,147.748 258.409 C 147.068 258.396,144.310 255.589,142.379 252.945 C 141.437 251.655,140.098 249.960,139.404 249.177 C 138.709 248.394,137.378 246.414,136.445 244.777 C 135.512 243.140,134.041 240.824,133.175 239.632 C 132.309 238.439,131.600 237.089,131.600 236.632 C 131.600 235.545,130.332 232.239,128.586 228.772 C 125.340 222.326,123.965 209.934,124.810 194.735 C 125.433 183.525,126.629 178.163,129.522 173.600 C 130.010 172.830,130.700 171.210,131.055 170.000 C 132.071 166.542,132.432 165.684,133.288 164.710 C 134.559 163.263,136.842 159.586,137.905 157.275 C 138.507 155.965,139.239 155.013,139.812 154.796 C 140.323 154.601,141.470 153.398,142.359 152.121 C 144.662 148.817,144.905 148.548,145.849 148.248 C 146.791 147.949,147.905 146.837,148.564 145.536 C 148.804 145.063,150.331 143.771,151.957 142.664 C 153.583 141.556,155.000 140.320,155.106 139.916 C 155.228 139.449,156.997 138.361,159.949 136.937 C 162.507 135.702,164.837 134.354,165.126 133.941 C 165.806 132.970,168.496 131.600,169.721 131.600 C 170.968 131.600,174.343 130.426,178.697 128.478 C 188.564 124.063,212.552 124.143,222.229 128.624 C 225.789 130.272,229.737 131.592,231.120 131.597 C 232.289 131.601,234.448 132.704,235.103 133.632 C 235.380 134.024,236.190 134.650,236.903 135.023 C 240.225 136.759,243.653 138.400,243.957 138.400 C 244.142 138.400,244.770 139.120,245.353 140.000 C 245.935 140.880,246.601 141.600,246.832 141.600 C 247.985 141.600,258.400 151.467,258.400 152.559 C 258.400 153.123,259.885 154.568,260.800 154.895 C 261.130 155.013,262.017 156.285,262.771 157.723 C 263.524 159.160,265.099 161.635,266.271 163.223 C 267.442 164.811,268.400 166.423,268.400 166.806 C 268.400 167.700,269.198 169.634,271.616 174.600 C 273.705 178.891,274.790 182.793,274.817 186.125 C 274.827 187.266,275.106 190.270,275.437 192.800 C 275.784 195.452,276.184 203.379,276.382 211.522 C 276.755 226.897,276.632 226.018,279.616 234.662 C 280.917 238.429,281.466 239.188,284.200 241.000 C 285.300 241.729,286.744 242.853,287.409 243.498 C 289.778 245.796,299.938 245.643,302.419 243.272 C 303.179 242.547,304.430 241.620,305.200 241.213 C 306.827 240.353,308.294 238.832,309.596 236.656 C 310.104 235.807,310.961 234.637,311.500 234.056 C 313.469 231.935,314.561 228.428,314.940 223.000 C 315.063 221.240,315.429 218.540,315.753 217.000 C 316.952 211.295,317.313 203.436,316.589 198.800 C 315.280 190.422,314.825 186.543,314.805 183.600 C 314.767 177.933,313.835 173.844,311.294 168.200 C 309.344 163.869,308.412 160.898,308.405 158.985 C 308.400 157.647,307.362 155.511,305.157 152.301 C 304.363 151.145,303.134 148.737,302.425 146.948 C 301.614 144.900,300.630 143.205,299.768 142.369 C 299.016 141.640,298.400 140.884,298.400 140.690 C 298.400 139.619,294.510 133.535,293.191 132.543 C 292.368 131.924,291.491 130.854,291.241 130.164 C 290.992 129.475,289.717 127.889,288.408 126.640 C 287.098 125.391,285.706 123.791,285.313 123.085 C 284.921 122.378,284.240 121.548,283.800 121.239 C 283.360 120.931,281.704 119.356,280.121 117.739 C 278.537 116.123,276.957 114.800,276.610 114.800 C 276.262 114.800,275.038 113.791,273.891 112.558 C 272.743 111.325,271.091 109.952,270.218 109.507 C 269.345 109.062,267.750 107.821,266.672 106.749 C 265.595 105.677,264.483 104.800,264.201 104.800 C 263.735 104.800,259.953 103.068,257.667 101.808 C 257.154 101.525,256.164 100.757,255.467 100.100 C 254.734 99.409,253.382 98.709,252.257 98.437 C 250.536 98.021,248.529 97.072,243.243 94.176 C 242.416 93.723,239.773 92.952,237.370 92.462 C 229.882 90.937,229.444 90.807,227.688 89.588 C 226.747 88.935,225.486 88.400,224.886 88.400 C 224.286 88.400,223.166 88.217,222.397 87.993 C 217.155 86.464,191.270 86.228,181.200 87.616 C 175.683 88.377,174.978 88.567,172.759 89.888 C 171.314 90.749,169.612 91.376,168.136 91.591 C 161.806 92.513,155.200 94.511,155.200 95.504 C 155.200 95.997,151.103 97.854,147.855 98.833 C 145.915 99.417,145.051 99.884,144.910 100.423 C 144.800 100.843,144.235 101.432,143.655 101.733 C 143.075 102.034,141.525 102.847,140.211 103.540 C 138.897 104.233,137.506 104.800,137.120 104.800 C 136.733 104.800,135.439 105.778,134.243 106.974 C 133.047 108.170,131.289 109.546,130.336 110.033 C 128.792 110.820,126.423 112.997,126.406 113.644 C 126.403 113.779,125.320 114.464,124.000 115.168 C 122.680 115.871,121.600 116.620,121.600 116.832 C 121.600 117.456,118.340 120.810,117.123 121.440 C 116.495 121.765,115.577 122.862,115.030 123.941 C 114.470 125.045,113.288 126.446,112.254 127.232 C 111.263 127.984,110.357 128.964,110.242 129.408 C 110.126 129.852,109.664 130.610,109.215 131.091 C 108.767 131.573,108.396 132.109,108.391 132.283 C 108.385 132.457,107.659 133.134,106.776 133.788 C 105.894 134.441,105.060 135.431,104.924 135.988 C 104.634 137.176,102.376 141.340,101.916 141.533 C 101.742 141.607,101.600 141.886,101.600 142.155 C 101.600 142.423,100.972 143.252,100.204 143.996 C 99.355 144.819,98.705 145.908,98.544 146.774 C 98.131 148.999,97.050 151.221,95.317 153.408 C 93.184 156.102,93.005 156.495,92.229 160.200 C 90.937 166.365,90.746 167.014,89.687 168.800 C 83.179 179.787,82.860 222.807,89.188 236.127 C 90.070 237.983,90.966 240.379,91.180 241.451 C 91.394 242.523,91.786 244.550,92.051 245.956 C 92.395 247.779,92.912 248.984,93.853 250.156 C 95.915 252.725,97.043 254.774,98.021 257.725 C 98.573 259.388,99.372 260.869,100.073 261.525 C 100.705 262.116,101.833 263.884,102.581 265.452 C 103.440 267.256,104.760 269.131,106.170 270.552 C 107.397 271.789,108.400 272.983,108.400 273.206 C 108.400 273.719,111.883 278.027,112.857 278.718 C 113.259 279.004,114.071 280.084,114.660 281.118 C 115.974 283.422,117.169 284.800,117.856 284.800 C 118.140 284.800,119.521 285.925,120.925 287.300 C 123.863 290.177,124.772 290.943,126.068 291.636 C 126.581 291.910,128.406 293.373,130.125 294.887 C 131.844 296.401,133.734 297.844,134.325 298.094 C 134.916 298.343,136.120 299.208,137.000 300.016 C 137.880 300.823,139.410 301.797,140.400 302.179 C 144.015 303.574,146.638 305.003,148.276 306.471 C 149.198 307.297,150.458 308.072,151.076 308.193 C 153.122 308.595,156.161 309.684,159.200 311.107 C 163.171 312.966,165.616 313.779,169.000 314.367 C 174.550 315.330,176.236 315.699,178.400 316.422 C 185.238 318.706,198.815 319.679,211.141 318.767 C 216.961 318.336,217.849 318.152,223.590 316.195 C 225.235 315.634,228.205 315.002,230.190 314.790 C 235.135 314.262,237.157 313.647,241.731 311.282 C 243.936 310.142,246.921 308.965,248.531 308.600 C 250.693 308.110,251.843 307.579,253.200 306.448 C 256.027 304.089,259.719 302.528,263.165 302.235 L 266.129 301.982 267.965 304.028 C 268.974 305.154,270.925 307.220,272.300 308.619 C 273.675 310.019,274.800 311.389,274.800 311.663 C 274.800 312.273,277.193 314.798,277.778 314.805 C 278.010 314.808,279.072 316.150,280.137 317.787 C 281.257 319.508,282.649 321.104,283.437 321.569 C 285.223 322.623,285.159 323.182,282.989 325.481 C 279.115 329.586,277.772 330.796,276.608 331.225 C 273.996 332.189,271.600 333.352,271.600 333.657 C 271.600 334.290,266.568 337.231,264.407 337.861 C 261.774 338.629,259.821 339.545,258.794 340.496 C 257.921 341.304,247.774 344.800,246.303 344.800 C 246.002 344.800,245.135 345.258,244.378 345.818 C 242.609 347.125,238.800 348.198,234.000 348.742 C 231.910 348.979,227.860 349.642,225.000 350.215 C 222.140 350.788,217.910 351.420,215.600 351.620 C 213.290 351.819,209.420 352.250,207.000 352.578 C 200.175 353.503,189.992 353.044,182.000 351.451 C 180.350 351.122,175.220 350.285,170.600 349.591 C 160.247 348.036,159.291 347.804,156.634 346.204 C 155.463 345.499,153.897 344.811,153.153 344.675 C 149.081 343.933,142.212 341.611,141.495 340.735 C 140.868 339.968,138.128 338.400,137.414 338.400 C 136.653 338.400,131.722 336.149,131.546 335.721 C 131.170 334.809,128.155 333.045,125.162 331.986 C 123.345 331.344,121.755 330.673,121.629 330.496 C 121.098 329.748,117.674 327.233,116.125 326.453 C 115.204 325.989,113.495 324.707,112.327 323.605 C 111.158 322.502,110.062 321.600,109.889 321.600 C 109.409 321.600,105.642 318.595,103.346 316.381 C 102.216 315.291,101.080 314.400,100.820 314.400 C 100.561 314.400,99.050 313.050,97.463 311.400 C 95.876 309.750,94.391 308.400,94.164 308.400 C 93.553 308.400,91.600 306.249,91.600 305.576 C 91.600 305.257,90.638 304.083,89.463 302.966 C 88.287 301.849,86.988 300.365,86.576 299.668 C 86.165 298.970,85.698 298.400,85.541 298.400 C 85.383 298.400,85.139 298.037,84.998 297.594 C 84.858 297.151,83.990 295.985,83.071 295.002 C 80.785 292.559,79.428 290.823,78.690 289.400 C 78.348 288.740,77.427 287.584,76.643 286.830 C 75.859 286.077,74.941 284.637,74.602 283.630 C 74.263 282.624,73.493 281.066,72.893 280.168 C 72.292 279.271,71.206 277.651,70.479 276.568 C 69.753 275.486,68.865 273.553,68.506 272.273 C 68.107 270.848,67.297 269.299,66.416 268.273 C 64.686 266.259,63.185 263.211,62.003 259.310 C 61.522 257.720,60.611 255.769,59.980 254.975 C 58.647 253.297,58.811 253.789,57.201 246.631 C 56.017 241.369,54.270 235.481,53.630 234.600 C 50.321 230.040,49.961 179.496,53.173 170.307 C 54.528 166.429,54.905 165.404,55.208 164.778 C 55.374 164.436,55.817 162.816,56.193 161.178 C 57.621 154.965,58.463 151.377,58.644 150.735 C 58.747 150.369,59.342 149.428,59.966 148.642 C 60.591 147.857,61.593 145.636,62.194 143.707 C 63.482 139.578,64.552 137.450,66.262 135.620 C 66.948 134.886,67.731 133.546,68.001 132.643 C 69.010 129.272,69.362 128.546,71.067 126.325 C 72.897 123.942,74.789 120.282,74.796 119.115 C 74.798 118.738,75.840 117.298,77.111 115.915 C 79.759 113.034,81.600 110.632,81.600 110.059 C 81.600 109.843,82.236 109.272,83.012 108.792 C 83.789 108.312,84.770 107.263,85.192 106.460 C 85.990 104.940,89.014 101.600,89.592 101.600 C 89.774 101.600,90.478 100.618,91.155 99.418 C 91.833 98.217,92.705 97.065,93.094 96.857 C 93.483 96.648,94.791 95.458,96.001 94.212 C 97.210 92.966,98.740 91.664,99.400 91.318 C 100.060 90.973,101.520 89.679,102.644 88.444 C 103.768 87.208,105.514 85.785,106.523 85.281 C 107.532 84.778,108.467 84.018,108.602 83.593 C 108.831 82.873,109.652 82.099,111.454 80.906 C 114.821 78.676,115.744 77.992,117.397 76.500 C 118.434 75.565,119.608 74.800,120.008 74.800 C 121.271 74.800,124.211 73.336,126.647 71.496 C 129.618 69.250,130.292 68.902,132.669 68.385 C 134.021 68.091,135.320 67.367,137.000 65.972 C 139.252 64.102,145.375 61.600,147.699 61.600 C 148.035 61.600,149.272 60.938,150.448 60.129 C 151.624 59.320,153.219 58.521,153.993 58.353 C 154.767 58.185,157.799 57.584,160.731 57.016 C 163.664 56.449,166.701 55.718,167.480 55.392 C 168.260 55.067,169.335 54.800,169.869 54.800 C 170.403 54.800,171.339 54.542,171.948 54.227 C 173.088 53.637,177.558 52.645,181.800 52.040 C 186.985 51.300,214.958 51.539,220.615 52.371 M195.800 160.624 C 195.140 160.713,192.800 160.982,190.600 161.223 C 185.095 161.827,185.078 161.832,183.318 163.297 C 182.457 164.014,179.933 165.496,177.709 166.591 C 174.973 167.938,173.454 168.939,173.013 169.685 C 172.655 170.292,171.516 171.366,170.481 172.072 C 168.246 173.599,167.896 173.999,166.557 176.553 C 165.993 177.627,164.744 179.349,163.781 180.379 C 162.009 182.274,161.613 183.210,159.628 190.212 C 158.728 193.386,157.089 203.097,157.376 203.561 C 157.479 203.727,157.756 205.109,157.992 206.632 C 159.333 215.290,161.648 222.496,163.620 224.156 C 164.242 224.679,165.022 225.757,165.355 226.553 C 165.687 227.349,166.507 228.585,167.178 229.300 C 167.848 230.015,168.397 230.825,168.398 231.100 C 168.399 231.375,168.606 231.600,168.859 231.600 C 169.311 231.600,172.079 233.885,174.800 236.506 C 176.573 238.213,179.087 239.644,182.400 240.830 C 183.830 241.342,185.819 242.239,186.820 242.823 C 190.246 244.822,191.188 244.968,200.600 244.961 C 209.961 244.955,210.951 244.778,214.400 242.497 C 214.950 242.133,216.495 241.451,217.834 240.980 C 220.967 239.878,224.800 238.002,224.800 237.571 C 224.800 237.387,226.285 236.110,228.100 234.734 C 231.935 231.826,231.926 231.835,233.194 230.000 C 233.726 229.230,234.260 228.510,234.381 228.400 C 234.501 228.290,234.942 227.528,235.359 226.707 C 235.777 225.886,236.521 224.951,237.013 224.628 C 238.532 223.633,240.400 218.886,241.590 213.000 C 241.768 212.120,242.321 210.320,242.820 209.000 C 243.974 205.948,244.071 199.266,243.004 196.400 C 242.636 195.410,242.099 193.700,241.811 192.600 C 239.710 184.558,238.248 181.057,236.253 179.292 C 235.564 178.681,234.640 177.475,234.200 176.610 C 233.248 174.739,230.263 171.600,229.436 171.600 C 229.114 171.600,228.467 170.917,227.998 170.082 C 227.284 168.812,226.478 168.242,223.072 166.602 C 220.833 165.523,218.336 164.056,217.524 163.343 C 216.712 162.629,215.452 161.950,214.724 161.833 C 209.869 161.055,206.977 160.775,202.306 160.629 C 199.387 160.537,196.460 160.535,195.800 160.624 " stroke="none" fill="#045af6" fill-rule="evenodd"></path></g></svg>