<?xml version="1.0" encoding="UTF-8" standalone="no"?>
<!-- Created with Inkscape (http://www.inkscape.org/) -->
<svg
   xmlns:svg="http://www.w3.org/2000/svg"
   xmlns="http://www.w3.org/2000/svg"
   version="1.0"
   width="300"
   height="300"
   id="svg2211">
  <defs
     id="defs2214" />
  <g
     transform="translate(0,-3.3e-4)"
     id="g2220">
    <path
       d="M 0,150 L 0,0 L 150,0 L 300,0 L 300,150 L 300,300 L 150,300 L 0,300 L 0,150 z "
       style="fill:#fcfc00"
       id="path2236" />
    <path
       d="M 0,150 L 0,0 L 150,0 L 300,0 L 300,75.393011 C 300,143.21909 299.84124,150.84694 298.41821,151.39301 C 297.54823,151.72686 264.24823,152 224.41821,152 L 152,152 L 152,224.41821 C 152,264.24823 151.72686,297.54823 151.39301,298.41821 C 150.84694,299.84124 143.21909,300 75.393011,300 L 0,300 L 0,150 z "
       style="fill:#0095fc"
       id="path2234" />
    <path
       d="M 143.75645,226.25 L 143.5,152.5 L 72,151.98333 C 32.675,151.69916 0.3875,151.36166 0.25,151.23333 C 0.1125,151.105 0,117.025 0,75.5 L 0,0 L 150,0 L 300,0 L 300,75.393011 C 300,143.21909 299.84124,150.84694 298.41821,151.39301 C 297.54823,151.72686 264.24823,152 224.41821,152 L 152,152 L 152,224.41821 C 152,264.24823 151.72686,297.54823 151.39301,298.41821 C 151.00486,299.42972 149.56507,300 147.39946,300 L 144.0129,300 L 143.75645,226.25 z "
       style="fill:#0964a4"
       id="path2232" />
    <path
       d="M 145.74558,226.75017 C 145.89808,181.26385 145.62763,152.93146 145.03206,152 C 144.19407,150.68942 134.97596,150.5 72.036475,150.5 L 0,150.5 L 0,75.25 L 0,0 L 150,0 L 300,0 L 300,75.393011 C 300,143.21909 299.84124,150.84694 298.41821,151.39301 C 297.54823,151.72686 264.24823,152 224.41821,152 L 152,152 L 152,224.41821 C 152,264.24823 151.72686,297.54823 151.39301,298.41821 C 151.0514,299.30843 149.63048,300.00007 148.14301,300.00017 L 145.5,300.00033 L 145.74558,226.75017 z "
       style="fill:#fb0000"
       id="path2230" />
    <path
       d="M 145.74558,226.75017 C 145.89808,181.26385 145.62763,152.93146 145.03206,152 C 144.19407,150.68942 134.97596,150.5 72.036475,150.5 L 0,150.5 L 0,147.75 L 0,145 L 71.3,145 C 125.42222,145 142.88911,144.71089 143.8,143.8 C 144.71089,142.88911 145,125.42222 145,71.3 L 145,0 L 222.5,0 L 300,0 L 300,75.393011 C 300,143.21909 299.84124,150.84694 298.41821,151.39301 C 297.54823,151.72686 264.24823,152 224.41821,152 L 152,152 L 152,224.41821 C 152,264.24823 151.72686,297.54823 151.39301,298.41821 C 151.0514,299.30843 149.63048,300.00007 148.14301,300.00017 L 145.5,300.00033 L 145.74558,226.75017 z "
       style="fill:#5e5e0f"
       id="path2228" />
    <path
       d="M 145.74558,226.75017 C 145.89808,181.26385 145.62763,152.93146 145.03206,152 C 144.19407,150.68942 134.97596,150.5 72.036475,150.5 L 0,150.5 L 0,147.75 L 0,145 L 72.5,145 L 145,145 L 145,72.5 L 145,0 L 222.5,0 L 300,0 L 300.00011,75.25 L 300.00022,150.5 L 225.25011,150.5 L 150.5,150.5 L 150.5,225.25011 L 150.5,300.00022 L 148,300.00027 L 145.5,300.00033 L 145.74558,226.75017 z "
       style="fill:#00c900"
       id="path2226" />
    <path
       d="M 145.74558,226.75017 C 145.89808,181.26385 145.62763,152.93146 145.03206,152 C 144.19407,150.68942 134.97596,150.5 72.036475,150.5 L 0,150.5 L 0,147.75 L 0,145 L 72.5,145 L 145,145 L 145,72.5 L 145,0 L 148.5,0 C 150.425,0 152.105,0.1125 152.23333,0.25 C 152.36166,0.3875 152.69916,32.675 152.98333,72 L 153.5,143.5 L 226.5,144.01634 C 266.65,144.30033 299.6125,144.63783 299.75,144.76634 C 299.8875,144.89485 300.00005,146.2375 300.00011,147.75 L 300.00022,150.5 L 225.25011,150.5 L 150.5,150.5 L 150.5,225.25011 L 150.5,300.00022 L 148,300.00027 L 145.5,300.00033 L 145.74558,226.75017 z "
       style="fill:#089b09"
       id="path2224" />
    <path
       d="M 145.74558,226.75017 C 145.89808,181.26385 145.62763,152.93146 145.03206,152 C 144.19407,150.68942 134.97596,150.5 72.036475,150.5 L 0,150.5 L 0,147.75 L 0,145 L 72.5,145 L 145,145 L 145,72.5 L 145,0 L 148,0 L 151,0 L 151,72.5 L 151,145 L 225.5,145 L 300,145 L 300.00011,147.75 L 300.00022,150.5 L 225.25011,150.5 L 150.5,150.5 L 150.5,225.25011 L 150.5,300.00022 L 148,300.00027 L 145.5,300.00033 L 145.74558,226.75017 z "
       style="fill:#11110d"
       id="path2222" />
  </g>
</svg>
