<?xml version="1.0" standalone="no"?>
<!DOCTYPE svg PUBLIC "-//W3C//DTD SVG 20010904//EN"
 "http://www.w3.org/TR/2001/REC-SVG-20010904/DTD/svg10.dtd">
<svg version="1.0" xmlns="http://www.w3.org/2000/svg"
 width="64.000000pt" height="64.000000pt" viewBox="0 0 64.000000 64.000000"
 preserveAspectRatio="xMidYMid meet">

<g transform="translate(0.000000,64.000000) scale(0.100000,-0.100000)"
fill="#000000" stroke="none">
<path d="M4 578 c-6 -20 8 -37 100 -124 l108 -100 37 -155 c52 -220 42 -224
236 102 86 144 154 269 153 278 -3 14 -39 16 -315 19 l-312 2 -7 -22z m426
-74 c-36 -20 -92 -51 -126 -69 l-61 -34 -68 69 -69 70 194 0 195 0 -65 -36z
m78 -46 c-8 -13 -52 -87 -98 -166 l-85 -143 -13 43 c-24 84 -37 161 -27 165 6
2 57 30 115 63 58 33 109 59 114 60 4 0 2 -10 -6 -22z"/>
</g>
</svg>
