<?xml version="1.0" standalone="no"?>
<!DOCTYPE svg PUBLIC "-//W3C//DTD SVG 20010904//EN"
 "http://www.w3.org/TR/2001/REC-SVG-20010904/DTD/svg10.dtd">
<svg version="1.0" xmlns="http://www.w3.org/2000/svg"
 width="64.000000pt" height="64.000000pt" viewBox="0 0 64.000000 64.000000"
 preserveAspectRatio="xMidYMid meet">

<g transform="translate(0.000000,64.000000) scale(0.100000,-0.100000)"
fill="#000000" stroke="none">
<path d="M115 587 c-40 -19 -90 -76 -105 -122 -18 -54 -7 -120 27 -168 37 -53
262 -257 283 -257 34 0 274 227 301 285 26 55 24 111 -6 171 -46 92 -141 127
-230 84 -26 -12 -49 -28 -52 -36 -3 -9 -17 -4 -48 18 -51 36 -123 46 -170 25z
m132 -71 c16 -14 38 -41 48 -60 11 -20 22 -36 25 -36 3 0 14 16 24 34 27 51
59 77 103 83 79 10 145 -73 129 -162 -8 -41 -75 -115 -199 -219 l-57 -48 -68
58 c-133 116 -180 168 -188 209 -22 117 101 210 183 141z"/>
</g>
</svg>
