<?xml version="1.0" standalone="no"?>
<!DOCTYPE svg PUBLIC "-//W3C//DTD SVG 20010904//EN"
 "http://www.w3.org/TR/2001/REC-SVG-20010904/DTD/svg10.dtd">
<svg version="1.0" xmlns="http://www.w3.org/2000/svg"
 width="30.000000pt" height="30.000000pt" viewBox="0 0 30.000000 30.000000"
 preserveAspectRatio="xMidYMid meet">

<g transform="translate(0.000000,30.000000) scale(0.100000,-0.100000)"
fill="#000000" stroke="none">
<path d="M20 250 c-29 -29 -29 -141 0 -170 11 -11 25 -20 30 -20 6 0 10 -13
10 -30 0 -17 5 -30 11 -30 6 0 28 13 49 30 31 24 47 30 89 30 73 0 91 21 91
105 0 97 -11 105 -150 105 -97 0 -112 -2 -130 -20z m245 -85 l0 -70 -59 -3
c-41 -2 -67 -9 -85 -24 l-26 -20 -3 20 c-2 14 -12 22 -30 24 -25 3 -27 6 -30
62 -5 90 -9 87 120 84 l113 -3 0 -70z"/>
</g>
</svg>
