<?xml version="1.0" standalone="no"?>
<!DOCTYPE svg PUBLIC "-//W3C//DTD SVG 20010904//EN"
 "http://www.w3.org/TR/2001/REC-SVG-20010904/DTD/svg10.dtd">
<svg version="1.0" xmlns="http://www.w3.org/2000/svg"
 width="72.000000pt" height="72.000000pt" viewBox="0 0 72.000000 72.000000"
 preserveAspectRatio="xMidYMid meet">

<g transform="translate(0.000000,72.000000) scale(0.100000,-0.100000)"
fill="#000000" stroke="none">
<path d="M40 680 c-11 -11 -20 -28 -20 -37 0 -9 19 -77 42 -150 l41 -133 -43
-139 c-48 -155 -47 -184 6 -197 39 -10 609 274 626 311 24 53 8 65 -302 220
-159 80 -299 145 -310 145 -11 0 -29 -9 -40 -20z m330 -160 l275 -139 -255 2
-254 2 -39 123 c-38 121 -41 153 -15 151 7 0 137 -63 288 -139z m-7 -323
c-219 -110 -285 -139 -294 -130 -10 10 -5 37 21 120 18 59 36 118 41 131 l9
22 252 -1 253 0 -282 -142z"/>
</g>
</svg>
