<?xml version="1.0" standalone="no"?>
<!DOCTYPE svg PUBLIC "-//W3C//DTD SVG 20010904//EN"
 "http://www.w3.org/TR/2001/REC-SVG-20010904/DTD/svg10.dtd">
<svg version="1.0" xmlns="http://www.w3.org/2000/svg"
 width="48.000000pt" height="48.000000pt" viewBox="0 0 48.000000 48.000000"
 preserveAspectRatio="xMidYMid meet">

<g transform="translate(0.000000,48.000000) scale(0.100000,-0.100000)"
fill="#000000" stroke="none">
<path d="M195 425 c-48 -17 -71 -43 -85 -96 -9 -33 -8 -47 8 -83 11 -24 25
-47 31 -50 6 -4 11 -20 11 -36 0 -33 14 -40 84 -40 55 0 76 12 76 42 0 10 12
37 27 60 75 113 -25 247 -152 203z"/>
<path d="M180 66 c0 -26 85 -37 108 -14 22 22 12 28 -48 28 -45 0 -60 -4 -60
-14z"/>
</g>
</svg>
