<?xml version="1.0" standalone="no"?>
<!DOCTYPE svg PUBLIC "-//W3C//DTD SVG 20010904//EN"
 "http://www.w3.org/TR/2001/REC-SVG-20010904/DTD/svg10.dtd">
<svg version="1.0" xmlns="http://www.w3.org/2000/svg"
 width="36.000000pt" height="36.000000pt" viewBox="0 0 36.000000 36.000000"
 preserveAspectRatio="xMidYMid meet">

<g transform="translate(0.000000,36.000000) scale(0.100000,-0.100000)"
fill="#000000" stroke="none">
<path d="M152 348 c-6 -6 -12 -15 -12 -19 0 -4 -16 -23 -35 -42 -20 -20 -35
-45 -35 -58 0 -13 -12 -48 -27 -77 -33 -65 -25 -86 34 -90 31 -2 43 -8 51 -27
21 -45 92 -42 107 4 4 15 17 21 47 23 60 4 68 24 35 90 -15 29 -27 64 -27 77
0 13 -15 38 -32 56 -18 18 -38 41 -44 52 -13 22 -45 28 -62 11z m43 -18 c3 -5
-3 -10 -15 -10 -12 0 -18 5 -15 10 3 6 10 10 15 10 5 0 12 -4 15 -10z m43 -55
c20 -17 31 -38 36 -66 4 -23 16 -55 27 -71 37 -52 25 -58 -121 -58 -146 0
-158 6 -121 58 11 16 23 48 27 71 13 81 93 116 152 66z m-20 -227 c-8 -22 -37
-34 -55 -22 -33 21 -26 34 17 34 28 0 40 -4 38 -12z"/>
</g>
</svg>
