<?xml version="1.0" standalone="no"?>
<!DOCTYPE svg PUBLIC "-//W3C//DTD SVG 20010904//EN"
 "http://www.w3.org/TR/2001/REC-SVG-20010904/DTD/svg10.dtd">
<svg version="1.0" xmlns="http://www.w3.org/2000/svg"
 width="48.000000pt" height="48.000000pt" viewBox="0 0 48.000000 48.000000"
 preserveAspectRatio="xMidYMid meet">

<g transform="translate(0.000000,48.000000) scale(0.100000,-0.100000)"
fill="#000000" stroke="none">
<path d="M60 340 c0 -19 7 -20 110 -20 103 0 110 1 110 20 0 19 -7 20 -110 20
-103 0 -110 -1 -110 -20z"/>
<path d="M60 260 c0 -19 7 -20 110 -20 103 0 110 1 110 20 0 19 -7 20 -110 20
-103 0 -110 -1 -110 -20z"/>
<path d="M320 240 l0 -40 -40 0 c-33 0 -40 -3 -40 -20 0 -17 7 -20 40 -20 l40
0 0 -40 c0 -33 3 -40 20 -40 17 0 20 7 20 40 l0 40 40 0 c33 0 40 3 40 20 0
17 -7 20 -40 20 l-40 0 0 40 c0 33 -3 40 -20 40 -17 0 -20 -7 -20 -40z"/>
<path d="M60 180 c0 -18 7 -20 70 -20 63 0 70 2 70 20 0 18 -7 20 -70 20 -63
0 -70 -2 -70 -20z"/>
</g>
</svg>
