<?xml version="1.0" standalone="no"?>
<!DOCTYPE svg PUBLIC "-//W3C//DTD SVG 20010904//EN"
 "http://www.w3.org/TR/2001/REC-SVG-20010904/DTD/svg10.dtd">
<svg version="1.0" xmlns="http://www.w3.org/2000/svg"
 width="36.000000pt" height="36.000000pt" viewBox="0 0 36.000000 36.000000"
 preserveAspectRatio="xMidYMid meet">

<g transform="translate(0.000000,36.000000) scale(0.100000,-0.100000)"
fill="#000000" stroke="none">
<path d="M82 178 c1 -73 3 -103 5 -65 l4 67 49 0 c38 0 50 -4 50 -15 0 -12 13
-15 55 -15 l55 0 0 65 0 65 -40 0 c-27 0 -43 5 -46 15 -5 11 -22 15 -70 15
l-64 0 2 -132z m118 107 c0 -11 12 -15 46 -15 l45 0 -3 -52 c-3 -52 -3 -53
-37 -56 -23 -2 -37 2 -43 12 -7 12 -24 16 -63 16 l-55 0 0 55 0 55 55 0 c42 0
55 -3 55 -15z"/>
</g>
</svg>
