<?xml version="1.0" standalone="no"?>
<!DOCTYPE svg PUBLIC "-//W3C//DTD SVG 20010904//EN"
 "http://www.w3.org/TR/2001/REC-SVG-20010904/DTD/svg10.dtd">
<svg version="1.0" xmlns="http://www.w3.org/2000/svg"
 width="72.000000pt" height="72.000000pt" viewBox="0 0 72.000000 72.000000"
 preserveAspectRatio="xMidYMid meet">

<g transform="translate(0.000000,72.000000) scale(0.100000,-0.100000)"
fill="#000000" stroke="none">
<path d="M124 706 c-8 -22 3 -49 19 -43 6 2 12 14 12 27 0 27 -22 39 -31 16z"/>
<path d="M95 620 c-12 -20 7 -30 56 -30 l49 0 0 -139 0 -140 -52 -3 c-39 -2
-53 -7 -53 -18 0 -13 38 -15 274 -18 151 -1 278 1 283 6 5 5 -5 45 -23 90
l-31 82 31 81 c17 44 29 85 25 90 -7 13 -551 12 -559 -1z m488 -100 l-26 -70
26 -70 26 -70 -185 0 -184 0 0 140 0 140 184 0 185 0 -26 -70z"/>
<path d="M125 548 c-3 -8 -4 -57 -3 -109 2 -76 6 -94 18 -94 12 0 15 18 15
104 0 75 -4 106 -12 108 -7 3 -15 -2 -18 -9z"/>
<path d="M125 228 c-3 -8 -4 -61 -3 -119 2 -84 6 -104 18 -104 12 0 15 19 15
114 0 83 -3 115 -12 118 -7 3 -15 -2 -18 -9z"/>
</g>
</svg>
