<?xml version="1.0" standalone="no"?>
<!DOCTYPE svg PUBLIC "-//W3C//DTD SVG 20010904//EN"
 "http://www.w3.org/TR/2001/REC-SVG-20010904/DTD/svg10.dtd">
<svg version="1.0" xmlns="http://www.w3.org/2000/svg"
 width="48.000000pt" height="48.000000pt" viewBox="0 0 48.000000 48.000000"
 preserveAspectRatio="xMidYMid meet">

<g transform="translate(0.000000,48.000000) scale(0.100000,-0.100000)"
fill="#000000" stroke="none">
<path d="M262 347 c-130 -130 -133 -135 -130 -173 3 -38 4 -39 42 -42 38 -3
43 0 173 130 73 73 133 139 133 147 0 20 -50 71 -70 71 -8 0 -75 -60 -148
-133z m173 83 c15 -16 16 -22 5 -35 -12 -14 -16 -13 -36 6 -18 17 -21 25 -13
36 15 18 23 17 44 -7z m-132 -172 c-66 -67 -105 -98 -120 -98 -48 0 -27 41 74
142 l97 98 23 -22 24 -22 -98 -98z"/>
<path d="M45 435 c-25 -24 -25 -27 -25 -195 0 -168 0 -171 25 -195 24 -25 27
-25 195 -25 168 0 171 0 195 25 24 23 25 31 25 135 0 91 -3 110 -15 110 -12 0
-15 -18 -15 -104 0 -82 -3 -108 -16 -120 -23 -24 -325 -24 -348 0 -24 23 -24
325 0 348 12 13 38 16 120 16 86 0 104 3 104 15 0 12 -19 15 -110 15 -104 0
-112 -1 -135 -25z"/>
</g>
</svg>
