<?xml version="1.0" standalone="no"?>
<!DOCTYPE svg PUBLIC "-//W3C//DTD SVG 20010904//EN"
 "http://www.w3.org/TR/2001/REC-SVG-20010904/DTD/svg10.dtd">
<svg version="1.0" xmlns="http://www.w3.org/2000/svg"
 width="48.000000pt" height="48.000000pt" viewBox="0 0 48.000000 48.000000"
 preserveAspectRatio="xMidYMid meet">

<g transform="translate(0.000000,48.000000) scale(0.100000,-0.100000)"
fill="#000000" stroke="none">
<path d="M157 451 c-24 -21 -46 -31 -78 -33 -42 -3 -44 -4 -47 -38 -3 -23 2
-38 13 -46 13 -10 20 -45 30 -156 8 -78 15 -144 15 -145 0 -1 7 -9 16 -17 23
-23 245 -23 268 0 9 8 16 16 16 17 0 1 7 67 15 145 10 111 17 146 30 156 11 8
16 23 13 46 -3 34 -5 35 -47 38 -32 2 -54 12 -78 33 -28 24 -43 29 -83 29 -40
0 -55 -5 -83 -29z m133 -16 c11 -13 4 -15 -50 -15 -54 0 -61 2 -50 15 7 8 29
15 50 15 21 0 43 -7 50 -15z m130 -60 c0 -13 -27 -15 -180 -15 -153 0 -180 2
-180 15 0 13 27 15 180 15 153 0 180 -2 180 -15z m-33 -77 c-3 -18 -9 -76 -13
-128 -10 -147 -3 -140 -134 -140 -131 0 -124 -7 -134 140 -4 52 -10 110 -13
128 l-5 32 152 0 152 0 -5 -32z"/>
<path d="M140 272 c0 -16 3 -70 6 -120 6 -72 10 -92 22 -92 13 0 14 14 8 92
-3 50 -6 104 -6 120 0 18 -5 28 -15 28 -10 0 -15 -10 -15 -28z"/>
<path d="M226 284 c-10 -26 -7 -198 4 -214 19 -28 30 11 30 107 0 91 -5 123
-20 123 -4 0 -11 -7 -14 -16z"/>
<path d="M310 272 c0 -16 -3 -70 -6 -120 -6 -78 -5 -92 8 -92 12 0 16 20 22
92 9 134 8 148 -9 148 -10 0 -15 -10 -15 -28z"/>
</g>
</svg>
