<?xml version="1.0" standalone="no"?>
<!DOCTYPE svg PUBLIC "-//W3C//DTD SVG 20010904//EN"
 "http://www.w3.org/TR/2001/REC-SVG-20010904/DTD/svg10.dtd">
<svg version="1.0" xmlns="http://www.w3.org/2000/svg"
 width="60.000000pt" height="60.000000pt" viewBox="0 0 60.000000 60.000000"
 preserveAspectRatio="xMidYMid meet">

<g transform="translate(0.000000,60.000000) scale(0.100000,-0.100000)"
fill="#000000" stroke="none">
<path d="M42 537 c-20 -21 -22 -34 -22 -148 0 -118 1 -127 23 -147 15 -14 36
-22 60 -22 l37 0 0 -65 c0 -57 3 -69 25 -90 24 -25 27 -25 195 -25 168 0 171
0 195 25 24 23 25 30 25 145 0 115 -1 122 -25 145 -16 17 -35 25 -60 25 l-35
0 0 68 c0 59 -3 72 -23 90 -22 21 -32 22 -198 22 -171 0 -176 -1 -197 -23z
m376 -89 l3 -68 -116 0 c-110 0 -117 -1 -140 -25 -17 -17 -25 -35 -25 -60 0
-36 -1 -36 -37 -33 l-38 3 -3 114 c-1 63 0 121 2 128 4 11 42 13 178 11 l173
-3 3 -67z m110 -120 c16 -16 16 -220 0 -236 -17 -17 -319 -17 -336 0 -16 16
-16 220 0 236 17 17 319 17 336 0z"/>
</g>
</svg>
