<?xml version="1.0" standalone="no"?>
<!DOCTYPE svg PUBLIC "-//W3C//DTD SVG 20010904//EN"
 "http://www.w3.org/TR/2001/REC-SVG-20010904/DTD/svg10.dtd">
<svg version="1.0" xmlns="http://www.w3.org/2000/svg"
 width="72.000000pt" height="72.000000pt" viewBox="0 0 72.000000 72.000000"
 preserveAspectRatio="xMidYMid meet">

<g transform="translate(0.000000,72.000000) scale(0.100000,-0.100000)"
fill="#000000" stroke="none">
<path d="M280 647 c-49 -16 -133 -102 -148 -153 -24 -83 -9 -160 44 -223 31
-36 33 -43 36 -124 l3 -85 72 29 73 29 72 -29 73 -29 3 85 c3 81 5 88 36 124
82 96 74 221 -19 314 -70 71 -152 91 -245 62z m158 -33 c174 -72 174 -316 0
-388 -133 -56 -287 47 -288 192 -1 147 154 253 288 196z m-78 -434 c21 0 56 7
79 15 l41 14 0 -49 c0 -28 -4 -50 -9 -50 -4 0 -31 10 -60 21 l-51 22 -51 -22
c-29 -11 -56 -21 -60 -21 -5 0 -9 22 -9 50 l0 49 41 -14 c23 -8 58 -15 79 -15z"/>
<path d="M340 480 c-10 -25 -18 -30 -46 -30 -41 0 -43 -12 -8 -37 24 -18 25
-22 16 -56 -12 -42 -10 -43 28 -20 30 17 27 18 92 -15 4 -2 2 14 -4 34 -9 35
-8 39 16 57 35 25 33 37 -8 37 -28 0 -36 5 -46 30 -7 17 -16 30 -20 30 -4 0
-13 -13 -20 -30z"/>
</g>
</svg>
